<svg xmlns="http://www.w3.org/2000/svg" xmlns:xlink="http://www.w3.org/1999/xlink" width="300" zoomAndPan="magnify" viewBox="0 0 224.87999 149.999998" height="200" preserveAspectRatio="xMidYMid meet" version="1.0"><defs><g><g id="id1"/><g id="id2"/></g><clipPath id="id3"><path d="M 20 12.710938 L 162 12.710938 L 162 144 L 20 144 Z M 20 12.710938 " clip-rule="nonzero"/></clipPath><clipPath id="id4"><path d="M 134.324219 23.414062 C 120.847656 14.925781 117.234375 14.539062 101.398438 12.78125 C 65.089844 13.214844 35.65625 34.1875 24.261719 68.671875 C 20.363281 80.464844 19.328125 93.65625 23.902344 105.210938 C 29.917969 120.386719 44.863281 130.671875 60.65625 134.816406 C 76.453125 138.972656 93.84375 144.683594 110.042969 142.710938 C 122.671875 141.171875 135.289062 131.9375 144.742188 123.421875 C 151.011719 117.769531 154.925781 109.929688 157.542969 101.902344 C 166.691406 73.964844 159.199219 39.09375 134.324219 23.414062 Z M 134.324219 23.414062 " clip-rule="nonzero"/></clipPath><clipPath id="id5"><path d="M 1.695312 71 L 59.542969 71 L 59.542969 93 L 1.695312 93 Z M 1.695312 71 " clip-rule="nonzero"/></clipPath></defs><g clip-path="url(#id3)"><g clip-path="url(#id4)"><path fill="rgb(94.509888%, 69.40918%, 31.369019%)" d="M 19.457031 3.074219 L 163.3125 3.074219 L 163.3125 146.925781 L 19.457031 146.925781 Z M 19.457031 3.074219 " fill-opacity="1" fill-rule="nonzero"/></g></g><g clip-path="url(#id5)"><path fill="rgb(100%, 100%, 100%)" d="M 59.546875 81.617188 C 59.546875 84.5625 56.429688 87.257812 50.773438 89.203125 C 45.378906 91.058594 38.222656 92.082031 30.621094 92.082031 C 23.019531 92.082031 15.859375 91.058594 10.464844 89.203125 C 4.808594 87.257812 1.691406 84.5625 1.691406 81.617188 C 1.691406 78.671875 4.808594 75.980469 10.464844 74.03125 C 15.859375 72.175781 23.019531 71.152344 30.621094 71.152344 C 38.222656 71.152344 45.378906 72.175781 50.773438 74.03125 C 56.429688 75.980469 59.546875 78.671875 59.546875 81.617188 Z M 3.269531 81.617188 C 3.269531 85.917969 14.257812 90.519531 30.621094 90.519531 C 46.980469 90.519531 57.96875 85.917969 57.96875 81.617188 C 57.96875 77.320312 46.980469 72.71875 30.621094 72.71875 C 14.257812 72.71875 3.269531 77.320312 3.269531 81.617188 Z M 3.269531 81.617188 " fill-opacity="1" fill-rule="nonzero"/></g><path fill="rgb(100%, 100%, 100%)" d="M 49.136719 99.714844 C 49.136719 102.402344 48.34375 104.355469 46.835938 105.367188 C 44.375 107.019531 40.378906 105.972656 35.582031 102.417969 C 31.007812 99.027344 26.140625 93.726562 21.878906 87.484375 C 15.847656 78.652344 12.101562 69.46875 12.101562 63.519531 C 12.101562 60.835938 12.898438 58.878906 14.402344 57.867188 C 16.863281 56.21875 20.859375 57.265625 25.65625 60.816406 C 30.230469 64.207031 35.097656 69.511719 39.359375 75.753906 C 45.390625 84.585938 49.136719 93.765625 49.136719 99.714844 Z M 13.679688 63.519531 C 13.679688 69.171875 17.320312 78.019531 23.1875 86.609375 C 32.355469 100.039062 42.363281 106.480469 45.953125 104.074219 C 47.28125 103.179688 47.5625 101.210938 47.5625 99.714844 C 47.5625 94.0625 43.917969 85.21875 38.054688 76.628906 C 33.886719 70.527344 29.148438 65.359375 24.710938 62.070312 C 20.554688 58.992188 17.121094 57.933594 15.289062 59.164062 C 13.957031 60.058594 13.679688 62.027344 13.679688 63.519531 Z M 13.679688 63.519531 " fill-opacity="1" fill-rule="nonzero"/><path fill="rgb(100%, 100%, 100%)" d="M 49.132812 63.542969 C 49.132812 65.199219 48.839844 67.140625 48.253906 69.324219 C 46.78125 74.792969 43.621094 81.242188 39.359375 87.484375 C 37.34375 90.4375 35.183594 93.191406 32.945312 95.664062 C 32.65625 95.984375 32.15625 96.011719 31.832031 95.722656 C 31.507812 95.4375 31.480469 94.941406 31.773438 94.621094 C 33.964844 92.199219 36.078125 89.503906 38.054688 86.609375 C 42.21875 80.507812 45.300781 74.226562 46.730469 68.917969 C 48.070312 63.949219 47.785156 60.394531 45.953125 59.164062 C 44.117188 57.933594 40.683594 58.992188 36.527344 62.070312 C 32.089844 65.359375 27.351562 70.527344 23.1875 76.628906 C 14.015625 90.058594 11.699219 101.664062 15.289062 104.074219 C 16.898438 105.15625 19.730469 104.480469 23.261719 102.175781 C 23.625 101.9375 24.113281 102.039062 24.355469 102.398438 C 24.59375 102.761719 24.492188 103.246094 24.128906 103.484375 C 19.972656 106.195312 16.609375 106.847656 14.402344 105.367188 C 11.945312 103.71875 11.441406 99.648438 12.984375 93.914062 C 14.460938 88.445312 17.617188 81.992188 21.878906 75.753906 C 26.140625 69.511719 31.007812 64.207031 35.582031 60.820312 C 40.378906 57.265625 44.375 56.21875 46.835938 57.871094 C 48.359375 58.890625 49.132812 60.84375 49.132812 63.542969 Z M 49.132812 63.542969 " fill-opacity="1" fill-rule="nonzero"/><path fill="rgb(78.039551%, 30.198669%, 20.779419%)" d="M 30.621094 74.828125 C 31.070312 74.828125 31.515625 74.871094 31.957031 74.957031 C 32.398438 75.046875 32.824219 75.175781 33.238281 75.34375 C 33.65625 75.515625 34.050781 75.726562 34.425781 75.972656 C 34.796875 76.21875 35.144531 76.5 35.460938 76.816406 C 35.78125 77.132812 36.0625 77.476562 36.3125 77.84375 C 36.5625 78.214844 36.773438 78.609375 36.945312 79.019531 C 37.117188 79.429688 37.25 79.855469 37.335938 80.292969 C 37.425781 80.730469 37.46875 81.171875 37.46875 81.617188 C 37.46875 82.0625 37.425781 82.503906 37.335938 82.941406 C 37.25 83.378906 37.117188 83.804688 36.945312 84.214844 C 36.773438 84.628906 36.5625 85.019531 36.3125 85.390625 C 36.0625 85.761719 35.78125 86.105469 35.460938 86.417969 C 35.144531 86.734375 34.796875 87.015625 34.425781 87.261719 C 34.050781 87.511719 33.65625 87.71875 33.238281 87.890625 C 32.824219 88.0625 32.398438 88.191406 31.957031 88.277344 C 31.515625 88.363281 31.070312 88.40625 30.621094 88.40625 C 30.167969 88.40625 29.722656 88.363281 29.285156 88.277344 C 28.84375 88.191406 28.414062 88.0625 28 87.890625 C 27.582031 87.71875 27.1875 87.511719 26.816406 87.261719 C 26.441406 87.015625 26.09375 86.734375 25.777344 86.417969 C 25.457031 86.105469 25.175781 85.761719 24.925781 85.390625 C 24.675781 85.019531 24.464844 84.628906 24.292969 84.214844 C 24.121094 83.804688 23.992188 83.378906 23.902344 82.941406 C 23.816406 82.503906 23.769531 82.0625 23.769531 81.617188 C 23.769531 81.171875 23.816406 80.730469 23.902344 80.292969 C 23.992188 79.855469 24.121094 79.429688 24.292969 79.019531 C 24.464844 78.609375 24.675781 78.214844 24.925781 77.84375 C 25.175781 77.476562 25.457031 77.132812 25.777344 76.816406 C 26.09375 76.5 26.441406 76.21875 26.816406 75.972656 C 27.1875 75.726562 27.582031 75.515625 28 75.34375 C 28.414062 75.175781 28.84375 75.046875 29.285156 74.957031 C 29.722656 74.871094 30.167969 74.828125 30.621094 74.828125 Z M 30.621094 74.828125 " fill-opacity="1" fill-rule="nonzero"/><path fill="rgb(78.039551%, 30.198669%, 20.779419%)" d="M 6.59375 84.367188 C 6.921875 84.367188 7.242188 84.429688 7.546875 84.554688 C 7.851562 84.679688 8.121094 84.855469 8.355469 85.089844 C 8.585938 85.320312 8.765625 85.585938 8.894531 85.890625 C 9.019531 86.191406 9.082031 86.507812 9.082031 86.835938 C 9.082031 87.164062 9.019531 87.476562 8.894531 87.78125 C 8.765625 88.082031 8.585938 88.351562 8.355469 88.582031 C 8.121094 88.8125 7.851562 88.992188 7.546875 89.117188 C 7.242188 89.242188 6.921875 89.304688 6.59375 89.304688 C 6.261719 89.304688 5.945312 89.242188 5.640625 89.117188 C 5.335938 88.992188 5.066406 88.8125 4.832031 88.582031 C 4.597656 88.351562 4.417969 88.082031 4.292969 87.78125 C 4.164062 87.476562 4.101562 87.164062 4.101562 86.835938 C 4.101562 86.507812 4.164062 86.191406 4.292969 85.890625 C 4.417969 85.585938 4.597656 85.320312 4.832031 85.089844 C 5.066406 84.855469 5.335938 84.679688 5.640625 84.554688 C 5.945312 84.429688 6.261719 84.367188 6.59375 84.367188 Z M 6.59375 84.367188 " fill-opacity="1" fill-rule="nonzero"/><path fill="rgb(78.039551%, 30.198669%, 20.779419%)" d="M 41.621094 56.03125 C 41.949219 56.03125 42.269531 56.09375 42.574219 56.21875 C 42.878906 56.34375 43.148438 56.523438 43.382812 56.753906 C 43.613281 56.984375 43.792969 57.253906 43.921875 57.554688 C 44.046875 57.855469 44.109375 58.171875 44.109375 58.5 C 44.109375 58.828125 44.046875 59.140625 43.921875 59.445312 C 43.792969 59.746094 43.613281 60.015625 43.382812 60.246094 C 43.148438 60.476562 42.878906 60.65625 42.574219 60.78125 C 42.269531 60.90625 41.949219 60.96875 41.621094 60.96875 C 41.289062 60.96875 40.972656 60.90625 40.667969 60.78125 C 40.363281 60.65625 40.09375 60.476562 39.859375 60.246094 C 39.625 60.015625 39.445312 59.746094 39.320312 59.445312 C 39.191406 59.140625 39.128906 58.828125 39.128906 58.5 C 39.128906 58.171875 39.191406 57.855469 39.320312 57.554688 C 39.445312 57.253906 39.625 56.984375 39.859375 56.753906 C 40.09375 56.523438 40.363281 56.34375 40.667969 56.21875 C 40.972656 56.09375 41.289062 56.03125 41.621094 56.03125 Z M 41.621094 56.03125 " fill-opacity="1" fill-rule="nonzero"/><path fill="rgb(78.039551%, 30.198669%, 20.779419%)" d="M 47.800781 97.164062 C 48.128906 97.164062 48.445312 97.226562 48.753906 97.355469 C 49.058594 97.480469 49.328125 97.65625 49.558594 97.890625 C 49.792969 98.121094 49.972656 98.386719 50.101562 98.691406 C 50.226562 98.992188 50.289062 99.308594 50.289062 99.636719 C 50.289062 99.960938 50.226562 100.277344 50.101562 100.582031 C 49.972656 100.882812 49.792969 101.148438 49.558594 101.382812 C 49.328125 101.613281 49.058594 101.792969 48.753906 101.917969 C 48.445312 102.042969 48.128906 102.105469 47.800781 102.105469 C 47.46875 102.105469 47.152344 102.042969 46.847656 101.917969 C 46.539062 101.792969 46.269531 101.613281 46.039062 101.382812 C 45.804688 101.148438 45.625 100.882812 45.496094 100.582031 C 45.371094 100.277344 45.308594 99.960938 45.308594 99.636719 C 45.308594 99.308594 45.371094 98.992188 45.496094 98.691406 C 45.625 98.386719 45.804688 98.121094 46.039062 97.890625 C 46.269531 97.65625 46.539062 97.480469 46.847656 97.355469 C 47.152344 97.226562 47.46875 97.164062 47.800781 97.164062 Z M 47.800781 97.164062 " fill-opacity="1" fill-rule="nonzero"/><g fill="rgb(100%, 100%, 100%)" fill-opacity="1"><g transform="translate(61.204267, 92.574713)"><g><path d="M 19.640625 -38.640625 C 23.578125 -38.640625 26.695312 -37.53125 29 -35.3125 C 31.3125 -33.09375 32.46875 -30.109375 32.46875 -26.359375 C 32.46875 -25.628906 32.414062 -24.847656 32.3125 -24.015625 L 31 -13.375 C 30.632812 -10.164062 29.503906 -7.425781 27.609375 -5.15625 C 25.722656 -2.882812 23.304688 -1.289062 20.359375 -0.375 C 20.140625 -0.34375 19.992188 -0.179688 19.921875 0.109375 L 19.484375 3.71875 C 19.453125 4.039062 19.332031 4.289062 19.125 4.46875 C 18.925781 4.65625 18.679688 4.75 18.390625 4.75 L 10.421875 4.75 C 9.765625 4.75 9.472656 4.40625 9.546875 3.71875 L 9.984375 0.15625 C 9.984375 -0.125 9.894531 -0.285156 9.71875 -0.328125 C 7.3125 -1.160156 5.4375 -2.523438 4.09375 -4.421875 C 2.75 -6.316406 2.078125 -8.609375 2.078125 -11.296875 C 2.078125 -12.203125 2.113281 -12.894531 2.1875 -13.375 L 3.5 -24.015625 C 3.820312 -26.921875 4.71875 -29.472656 6.1875 -31.671875 C 7.664062 -33.878906 9.566406 -35.59375 11.890625 -36.8125 C 14.222656 -38.03125 16.804688 -38.640625 19.640625 -38.640625 Z M 12.171875 -13.640625 C 12.128906 -13.421875 12.109375 -13.113281 12.109375 -12.71875 C 12.109375 -11.375 12.453125 -10.304688 13.140625 -9.515625 C 13.835938 -8.734375 14.769531 -8.34375 15.9375 -8.34375 C 17.28125 -8.34375 18.429688 -8.828125 19.390625 -9.796875 C 20.359375 -10.765625 20.9375 -12.046875 21.125 -13.640625 L 22.4375 -24.5625 C 22.46875 -24.78125 22.484375 -25.085938 22.484375 -25.484375 C 22.484375 -26.828125 22.132812 -27.890625 21.4375 -28.671875 C 20.75 -29.460938 19.804688 -29.859375 18.609375 -29.859375 C 17.265625 -29.859375 16.117188 -29.363281 15.171875 -28.375 C 14.222656 -27.394531 13.660156 -26.125 13.484375 -24.5625 Z M 12.171875 -13.640625 "/></g></g></g><g fill="rgb(100%, 100%, 100%)" fill-opacity="1"><g transform="translate(93.239054, 92.574713)"><g><path d="M 15.234375 0.4375 C 11.265625 0.4375 8.113281 -0.613281 5.78125 -2.71875 C 3.457031 -4.832031 2.296875 -7.691406 2.296875 -11.296875 C 2.296875 -11.734375 2.332031 -12.390625 2.40625 -13.265625 L 5.34375 -37.171875 C 5.457031 -37.859375 5.84375 -38.203125 6.5 -38.203125 L 14.40625 -38.203125 C 15.101562 -38.203125 15.414062 -37.859375 15.34375 -37.171875 L 12.390625 -13.265625 C 12.347656 -13.078125 12.328125 -12.785156 12.328125 -12.390625 C 12.328125 -11.148438 12.679688 -10.164062 13.390625 -9.4375 C 14.109375 -8.707031 15.082031 -8.34375 16.3125 -8.34375 C 17.664062 -8.34375 18.8125 -8.789062 19.75 -9.6875 C 20.695312 -10.582031 21.265625 -11.773438 21.453125 -13.265625 L 24.34375 -37.171875 C 24.375 -37.492188 24.5 -37.742188 24.71875 -37.921875 C 24.9375 -38.109375 25.191406 -38.203125 25.484375 -38.203125 L 33.453125 -38.203125 C 33.742188 -38.203125 33.972656 -38.109375 34.140625 -37.921875 C 34.304688 -37.742188 34.367188 -37.492188 34.328125 -37.171875 L 31.375 -13.265625 C 31.050781 -10.535156 30.148438 -8.132812 28.671875 -6.0625 C 27.203125 -3.988281 25.3125 -2.382812 23 -1.25 C 20.6875 -0.125 18.097656 0.4375 15.234375 0.4375 Z M 15.234375 0.4375 "/></g></g></g><g fill="rgb(100%, 100%, 100%)" fill-opacity="1"><g transform="translate(125.874153, 92.574713)"><g><path d="M 2.015625 0 C 1.691406 0 1.457031 -0.0859375 1.3125 -0.265625 C 1.164062 -0.453125 1.109375 -0.707031 1.140625 -1.03125 L 5.5625 -37.171875 C 5.675781 -37.859375 6.0625 -38.203125 6.71875 -38.203125 L 14.625 -38.203125 C 14.957031 -38.203125 15.195312 -38.109375 15.34375 -37.921875 C 15.488281 -37.742188 15.539062 -37.492188 15.5 -37.171875 L 11.078125 -1.03125 C 11.046875 -0.707031 10.925781 -0.453125 10.71875 -0.265625 C 10.519531 -0.0859375 10.257812 0 9.9375 0 Z M 2.015625 0 "/></g></g></g><g fill="rgb(100%, 100%, 100%)" fill-opacity="1"><g transform="translate(139.954179, 92.574713)"><g><path d="M 1.203125 0 C 0.910156 0 0.679688 -0.0859375 0.515625 -0.265625 C 0.347656 -0.453125 0.285156 -0.707031 0.328125 -1.03125 L 1.25 -8.5625 C 1.289062 -9 1.492188 -9.421875 1.859375 -9.828125 L 19.375 -28.875 C 19.476562 -29.019531 19.515625 -29.144531 19.484375 -29.25 C 19.453125 -29.363281 19.34375 -29.421875 19.15625 -29.421875 L 4.796875 -29.421875 C 4.503906 -29.421875 4.273438 -29.507812 4.109375 -29.6875 C 3.953125 -29.875 3.890625 -30.128906 3.921875 -30.453125 L 4.75 -37.171875 C 4.78125 -37.492188 4.90625 -37.742188 5.125 -37.921875 C 5.34375 -38.109375 5.597656 -38.203125 5.890625 -38.203125 L 30.953125 -38.203125 C 31.273438 -38.203125 31.507812 -38.109375 31.65625 -37.921875 C 31.800781 -37.742188 31.851562 -37.492188 31.8125 -37.171875 L 30.890625 -29.640625 C 30.859375 -29.234375 30.675781 -28.8125 30.34375 -28.375 L 12.65625 -9.328125 C 12.550781 -9.179688 12.523438 -9.050781 12.578125 -8.9375 C 12.628906 -8.832031 12.726562 -8.78125 12.875 -8.78125 L 27.34375 -8.78125 C 28 -8.78125 28.289062 -8.4375 28.21875 -7.75 L 27.390625 -1.03125 C 27.285156 -0.34375 26.90625 0 26.25 0 Z M 1.203125 0 "/></g></g></g><g fill="rgb(25.489807%, 26.669312%, 27.839661%)" fill-opacity="1"><g transform="translate(79.164674, 107.42032)"><g><path d="M 6.078125 -6.515625 C 6.179688 -6.453125 6.234375 -6.367188 6.234375 -6.265625 C 6.234375 -6.203125 6.207031 -6.132812 6.15625 -6.0625 C 6.09375 -5.988281 6.015625 -5.953125 5.921875 -5.953125 C 5.867188 -5.953125 5.816406 -5.96875 5.765625 -6 C 5.234375 -6.351562 4.648438 -6.53125 4.015625 -6.53125 C 3.460938 -6.53125 2.96875 -6.398438 2.53125 -6.140625 C 2.09375 -5.890625 1.75 -5.535156 1.5 -5.078125 C 1.25 -4.617188 1.125 -4.097656 1.125 -3.515625 C 1.125 -2.921875 1.25 -2.394531 1.5 -1.9375 C 1.757812 -1.476562 2.109375 -1.125 2.546875 -0.875 C 2.984375 -0.625 3.472656 -0.5 4.015625 -0.5 C 4.648438 -0.5 5.226562 -0.671875 5.75 -1.015625 C 5.8125 -1.046875 5.867188 -1.0625 5.921875 -1.0625 C 6.015625 -1.0625 6.09375 -1.019531 6.15625 -0.9375 C 6.207031 -0.882812 6.234375 -0.820312 6.234375 -0.75 C 6.234375 -0.644531 6.1875 -0.566406 6.09375 -0.515625 C 5.832031 -0.335938 5.507812 -0.191406 5.125 -0.078125 C 4.738281 0.0351562 4.367188 0.09375 4.015625 0.09375 C 3.367188 0.09375 2.773438 -0.0546875 2.234375 -0.359375 C 1.703125 -0.660156 1.273438 -1.085938 0.953125 -1.640625 C 0.640625 -2.191406 0.484375 -2.816406 0.484375 -3.515625 C 0.484375 -4.191406 0.640625 -4.804688 0.953125 -5.359375 C 1.265625 -5.910156 1.6875 -6.34375 2.21875 -6.65625 C 2.757812 -6.96875 3.359375 -7.125 4.015625 -7.125 C 4.390625 -7.125 4.753906 -7.066406 5.109375 -6.953125 C 5.460938 -6.847656 5.785156 -6.703125 6.078125 -6.515625 Z M 6.078125 -6.515625 "/></g></g></g><g fill="rgb(25.489807%, 26.669312%, 27.839661%)" fill-opacity="1"><g transform="translate(85.716868, 107.42032)"><g><path d="M 5.921875 -7.03125 C 6.003906 -7.03125 6.070312 -7 6.125 -6.9375 C 6.1875 -6.882812 6.21875 -6.816406 6.21875 -6.734375 L 6.21875 -2.578125 C 6.21875 -2.085938 6.097656 -1.632812 5.859375 -1.21875 C 5.628906 -0.8125 5.3125 -0.488281 4.90625 -0.25 C 4.507812 -0.0195312 4.070312 0.09375 3.59375 0.09375 C 3.101562 0.09375 2.65625 -0.0195312 2.25 -0.25 C 1.84375 -0.488281 1.519531 -0.8125 1.28125 -1.21875 C 1.050781 -1.632812 0.9375 -2.085938 0.9375 -2.578125 L 0.9375 -6.734375 C 0.9375 -6.816406 0.960938 -6.882812 1.015625 -6.9375 C 1.078125 -7 1.160156 -7.03125 1.265625 -7.03125 C 1.347656 -7.03125 1.414062 -7 1.46875 -6.9375 C 1.53125 -6.882812 1.5625 -6.816406 1.5625 -6.734375 L 1.5625 -2.578125 C 1.5625 -2.203125 1.648438 -1.851562 1.828125 -1.53125 C 2.015625 -1.21875 2.265625 -0.96875 2.578125 -0.78125 C 2.890625 -0.601562 3.226562 -0.515625 3.59375 -0.515625 C 3.957031 -0.515625 4.296875 -0.601562 4.609375 -0.78125 C 4.921875 -0.96875 5.164062 -1.21875 5.34375 -1.53125 C 5.53125 -1.851562 5.625 -2.203125 5.625 -2.578125 L 5.625 -6.734375 C 5.625 -6.816406 5.648438 -6.882812 5.703125 -6.9375 C 5.753906 -7 5.828125 -7.03125 5.921875 -7.03125 Z M 5.921875 -7.03125 "/></g></g></g><g fill="rgb(25.489807%, 26.669312%, 27.839661%)" fill-opacity="1"><g transform="translate(92.8711, 107.42032)"><g><path d="M 4.828125 -0.59375 C 4.921875 -0.59375 4.992188 -0.566406 5.046875 -0.515625 C 5.109375 -0.460938 5.140625 -0.390625 5.140625 -0.296875 C 5.140625 -0.210938 5.109375 -0.140625 5.046875 -0.078125 C 4.992188 -0.0234375 4.921875 0 4.828125 0 L 1.25 0 C 1.15625 0 1.078125 -0.0234375 1.015625 -0.078125 C 0.960938 -0.140625 0.9375 -0.210938 0.9375 -0.296875 L 0.9375 -6.734375 C 0.9375 -6.816406 0.96875 -6.882812 1.03125 -6.9375 C 1.09375 -7 1.171875 -7.03125 1.265625 -7.03125 C 1.347656 -7.03125 1.421875 -7 1.484375 -6.9375 C 1.546875 -6.882812 1.578125 -6.816406 1.578125 -6.734375 L 1.578125 -0.59375 Z M 4.828125 -0.59375 "/></g></g></g><g fill="rgb(25.489807%, 26.669312%, 27.839661%)" fill-opacity="1"><g transform="translate(98.209183, 107.42032)"><g><path d="M 5.421875 -7.03125 C 5.515625 -7.03125 5.585938 -7.003906 5.640625 -6.953125 C 5.703125 -6.898438 5.734375 -6.828125 5.734375 -6.734375 C 5.734375 -6.648438 5.703125 -6.582031 5.640625 -6.53125 C 5.585938 -6.476562 5.515625 -6.453125 5.421875 -6.453125 L 3.34375 -6.453125 L 3.34375 -0.296875 C 3.34375 -0.210938 3.3125 -0.140625 3.25 -0.078125 C 3.195312 -0.0234375 3.125 0 3.03125 0 C 2.9375 0 2.859375 -0.0234375 2.796875 -0.078125 C 2.742188 -0.140625 2.71875 -0.210938 2.71875 -0.296875 L 2.71875 -6.453125 L 0.640625 -6.453125 C 0.554688 -6.453125 0.484375 -6.476562 0.421875 -6.53125 C 0.367188 -6.59375 0.34375 -6.664062 0.34375 -6.75 C 0.34375 -6.832031 0.367188 -6.898438 0.421875 -6.953125 C 0.484375 -7.003906 0.554688 -7.03125 0.640625 -7.03125 Z M 5.421875 -7.03125 "/></g></g></g><g fill="rgb(25.489807%, 26.669312%, 27.839661%)" fill-opacity="1"><g transform="translate(104.269713, 107.42032)"><g><path d="M 5.921875 -7.03125 C 6.003906 -7.03125 6.070312 -7 6.125 -6.9375 C 6.1875 -6.882812 6.21875 -6.816406 6.21875 -6.734375 L 6.21875 -2.578125 C 6.21875 -2.085938 6.097656 -1.632812 5.859375 -1.21875 C 5.628906 -0.8125 5.3125 -0.488281 4.90625 -0.25 C 4.507812 -0.0195312 4.070312 0.09375 3.59375 0.09375 C 3.101562 0.09375 2.65625 -0.0195312 2.25 -0.25 C 1.84375 -0.488281 1.519531 -0.8125 1.28125 -1.21875 C 1.050781 -1.632812 0.9375 -2.085938 0.9375 -2.578125 L 0.9375 -6.734375 C 0.9375 -6.816406 0.960938 -6.882812 1.015625 -6.9375 C 1.078125 -7 1.160156 -7.03125 1.265625 -7.03125 C 1.347656 -7.03125 1.414062 -7 1.46875 -6.9375 C 1.53125 -6.882812 1.5625 -6.816406 1.5625 -6.734375 L 1.5625 -2.578125 C 1.5625 -2.203125 1.648438 -1.851562 1.828125 -1.53125 C 2.015625 -1.21875 2.265625 -0.96875 2.578125 -0.78125 C 2.890625 -0.601562 3.226562 -0.515625 3.59375 -0.515625 C 3.957031 -0.515625 4.296875 -0.601562 4.609375 -0.78125 C 4.921875 -0.96875 5.164062 -1.21875 5.34375 -1.53125 C 5.53125 -1.851562 5.625 -2.203125 5.625 -2.578125 L 5.625 -6.734375 C 5.625 -6.816406 5.648438 -6.882812 5.703125 -6.9375 C 5.753906 -7 5.828125 -7.03125 5.921875 -7.03125 Z M 5.921875 -7.03125 "/></g></g></g><g fill="rgb(25.489807%, 26.669312%, 27.839661%)" fill-opacity="1"><g transform="translate(111.423946, 107.42032)"><g><path d="M 6.078125 -0.546875 C 6.179688 -0.472656 6.234375 -0.390625 6.234375 -0.296875 C 6.234375 -0.253906 6.21875 -0.207031 6.1875 -0.15625 C 6.164062 -0.113281 6.128906 -0.078125 6.078125 -0.046875 C 6.035156 -0.0234375 5.984375 -0.015625 5.921875 -0.015625 C 5.859375 -0.015625 5.800781 -0.0234375 5.75 -0.046875 C 5.5625 -0.160156 5.410156 -0.335938 5.296875 -0.578125 C 5.191406 -0.816406 5.140625 -1.203125 5.140625 -1.734375 C 5.140625 -2.203125 5.003906 -2.53125 4.734375 -2.71875 C 4.472656 -2.90625 4.164062 -3 3.8125 -3 L 1.578125 -3 L 1.578125 -0.296875 C 1.578125 -0.210938 1.550781 -0.140625 1.5 -0.078125 C 1.445312 -0.0234375 1.375 0 1.28125 0 C 1.1875 0 1.101562 -0.0234375 1.03125 -0.078125 C 0.96875 -0.140625 0.9375 -0.210938 0.9375 -0.296875 L 0.9375 -6.734375 C 0.9375 -6.816406 0.960938 -6.882812 1.015625 -6.9375 C 1.078125 -7 1.15625 -7.03125 1.25 -7.03125 L 3.953125 -7.03125 C 4.335938 -7.03125 4.679688 -6.945312 4.984375 -6.78125 C 5.285156 -6.625 5.519531 -6.398438 5.6875 -6.109375 C 5.863281 -5.816406 5.953125 -5.492188 5.953125 -5.140625 C 5.953125 -4.703125 5.835938 -4.320312 5.609375 -4 C 5.390625 -3.675781 5.097656 -3.453125 4.734375 -3.328125 C 5.023438 -3.222656 5.265625 -3.03125 5.453125 -2.75 C 5.640625 -2.476562 5.738281 -2.148438 5.75 -1.765625 C 5.75 -1.347656 5.773438 -1.054688 5.828125 -0.890625 C 5.878906 -0.722656 5.960938 -0.609375 6.078125 -0.546875 Z M 3.984375 -3.5625 C 4.222656 -3.582031 4.441406 -3.65625 4.640625 -3.78125 C 4.835938 -3.914062 5 -4.097656 5.125 -4.328125 C 5.25 -4.554688 5.3125 -4.816406 5.3125 -5.109375 C 5.3125 -5.492188 5.179688 -5.8125 4.921875 -6.0625 C 4.660156 -6.3125 4.320312 -6.4375 3.90625 -6.4375 L 1.578125 -6.4375 L 1.578125 -3.5625 Z M 3.984375 -3.5625 "/></g></g></g><g fill="rgb(25.489807%, 26.669312%, 27.839661%)" fill-opacity="1"><g transform="translate(118.146719, 107.42032)"><g><path d="M 4.9375 -0.59375 C 5.019531 -0.59375 5.085938 -0.5625 5.140625 -0.5 C 5.203125 -0.4375 5.234375 -0.367188 5.234375 -0.296875 C 5.234375 -0.203125 5.203125 -0.128906 5.140625 -0.078125 C 5.085938 -0.0234375 5.019531 0 4.9375 0 L 1.25 0 C 1.15625 0 1.078125 -0.0234375 1.015625 -0.078125 C 0.960938 -0.140625 0.9375 -0.210938 0.9375 -0.296875 L 0.9375 -6.734375 C 0.9375 -6.816406 0.960938 -6.882812 1.015625 -6.9375 C 1.078125 -7 1.15625 -7.03125 1.25 -7.03125 L 4.9375 -7.03125 C 5.019531 -7.03125 5.085938 -7 5.140625 -6.9375 C 5.203125 -6.882812 5.234375 -6.816406 5.234375 -6.734375 C 5.234375 -6.640625 5.203125 -6.566406 5.140625 -6.515625 C 5.085938 -6.460938 5.019531 -6.4375 4.9375 -6.4375 L 1.578125 -6.4375 L 1.578125 -3.921875 L 4.484375 -3.921875 C 4.566406 -3.921875 4.632812 -3.890625 4.6875 -3.828125 C 4.75 -3.773438 4.78125 -3.703125 4.78125 -3.609375 C 4.78125 -3.523438 4.75 -3.457031 4.6875 -3.40625 C 4.632812 -3.351562 4.566406 -3.328125 4.484375 -3.328125 L 1.578125 -3.328125 L 1.578125 -0.59375 Z M 4.9375 -0.59375 "/></g></g></g><g fill="rgb(25.489807%, 26.669312%, 27.839661%)" fill-opacity="1"><g transform="translate(123.846022, 107.42032)"><g/></g></g><g fill="rgb(25.489807%, 26.669312%, 27.839661%)" fill-opacity="1"><g transform="translate(126.585302, 107.42032)"><g><path d="M 6.078125 -3.546875 C 6.160156 -3.546875 6.226562 -3.515625 6.28125 -3.453125 C 6.34375 -3.398438 6.375 -3.332031 6.375 -3.25 L 6.375 -0.828125 C 6.375 -0.710938 6.328125 -0.617188 6.234375 -0.546875 C 5.929688 -0.335938 5.59375 -0.175781 5.21875 -0.0625 C 4.851562 0.0390625 4.476562 0.09375 4.09375 0.09375 C 3.414062 0.09375 2.800781 -0.0625 2.25 -0.375 C 1.695312 -0.6875 1.265625 -1.113281 0.953125 -1.65625 C 0.640625 -2.207031 0.484375 -2.828125 0.484375 -3.515625 C 0.484375 -4.203125 0.640625 -4.816406 0.953125 -5.359375 C 1.265625 -5.910156 1.695312 -6.34375 2.25 -6.65625 C 2.800781 -6.976562 3.414062 -7.140625 4.09375 -7.140625 C 4.445312 -7.140625 4.789062 -7.09375 5.125 -7 C 5.457031 -6.914062 5.753906 -6.789062 6.015625 -6.625 C 6.109375 -6.570312 6.15625 -6.488281 6.15625 -6.375 C 6.15625 -6.289062 6.125 -6.21875 6.0625 -6.15625 C 6.007812 -6.09375 5.945312 -6.0625 5.875 -6.0625 C 5.8125 -6.0625 5.753906 -6.082031 5.703125 -6.125 C 5.191406 -6.394531 4.65625 -6.53125 4.09375 -6.53125 C 3.53125 -6.53125 3.019531 -6.398438 2.5625 -6.140625 C 2.113281 -5.878906 1.757812 -5.519531 1.5 -5.0625 C 1.25 -4.601562 1.125 -4.085938 1.125 -3.515625 C 1.125 -2.941406 1.25 -2.425781 1.5 -1.96875 C 1.757812 -1.507812 2.113281 -1.148438 2.5625 -0.890625 C 3.019531 -0.628906 3.53125 -0.5 4.09375 -0.5 C 4.382812 -0.5 4.675781 -0.539062 4.96875 -0.625 C 5.257812 -0.707031 5.519531 -0.816406 5.75 -0.953125 L 5.75 -2.9375 L 4.15625 -2.9375 C 4.070312 -2.9375 4 -2.960938 3.9375 -3.015625 C 3.875 -3.078125 3.84375 -3.15625 3.84375 -3.25 C 3.84375 -3.332031 3.875 -3.398438 3.9375 -3.453125 C 4 -3.515625 4.070312 -3.546875 4.15625 -3.546875 Z M 6.078125 -3.546875 "/></g></g></g><g fill="rgb(25.489807%, 26.669312%, 27.839661%)" fill-opacity="1"><g transform="translate(133.558921, 107.42032)"><g><path d="M 4.9375 -0.59375 C 5.019531 -0.59375 5.085938 -0.5625 5.140625 -0.5 C 5.203125 -0.4375 5.234375 -0.367188 5.234375 -0.296875 C 5.234375 -0.203125 5.203125 -0.128906 5.140625 -0.078125 C 5.085938 -0.0234375 5.019531 0 4.9375 0 L 1.25 0 C 1.15625 0 1.078125 -0.0234375 1.015625 -0.078125 C 0.960938 -0.140625 0.9375 -0.210938 0.9375 -0.296875 L 0.9375 -6.734375 C 0.9375 -6.816406 0.960938 -6.882812 1.015625 -6.9375 C 1.078125 -7 1.15625 -7.03125 1.25 -7.03125 L 4.9375 -7.03125 C 5.019531 -7.03125 5.085938 -7 5.140625 -6.9375 C 5.203125 -6.882812 5.234375 -6.816406 5.234375 -6.734375 C 5.234375 -6.640625 5.203125 -6.566406 5.140625 -6.515625 C 5.085938 -6.460938 5.019531 -6.4375 4.9375 -6.4375 L 1.578125 -6.4375 L 1.578125 -3.921875 L 4.484375 -3.921875 C 4.566406 -3.921875 4.632812 -3.890625 4.6875 -3.828125 C 4.75 -3.773438 4.78125 -3.703125 4.78125 -3.609375 C 4.78125 -3.523438 4.75 -3.457031 4.6875 -3.40625 C 4.632812 -3.351562 4.566406 -3.328125 4.484375 -3.328125 L 1.578125 -3.328125 L 1.578125 -0.59375 Z M 4.9375 -0.59375 "/></g></g></g><g fill="rgb(25.489807%, 26.669312%, 27.839661%)" fill-opacity="1"><g transform="translate(139.258223, 107.42032)"><g><path d="M 4.9375 -0.59375 C 5.019531 -0.59375 5.085938 -0.5625 5.140625 -0.5 C 5.203125 -0.4375 5.234375 -0.367188 5.234375 -0.296875 C 5.234375 -0.203125 5.203125 -0.128906 5.140625 -0.078125 C 5.085938 -0.0234375 5.019531 0 4.9375 0 L 1.25 0 C 1.15625 0 1.078125 -0.0234375 1.015625 -0.078125 C 0.960938 -0.140625 0.9375 -0.210938 0.9375 -0.296875 L 0.9375 -6.734375 C 0.9375 -6.816406 0.960938 -6.882812 1.015625 -6.9375 C 1.078125 -7 1.15625 -7.03125 1.25 -7.03125 L 4.9375 -7.03125 C 5.019531 -7.03125 5.085938 -7 5.140625 -6.9375 C 5.203125 -6.882812 5.234375 -6.816406 5.234375 -6.734375 C 5.234375 -6.640625 5.203125 -6.566406 5.140625 -6.515625 C 5.085938 -6.460938 5.019531 -6.4375 4.9375 -6.4375 L 1.578125 -6.4375 L 1.578125 -3.921875 L 4.484375 -3.921875 C 4.566406 -3.921875 4.632812 -3.890625 4.6875 -3.828125 C 4.75 -3.773438 4.78125 -3.703125 4.78125 -3.609375 C 4.78125 -3.523438 4.75 -3.457031 4.6875 -3.40625 C 4.632812 -3.351562 4.566406 -3.328125 4.484375 -3.328125 L 1.578125 -3.328125 L 1.578125 -0.59375 Z M 4.9375 -0.59375 "/></g></g></g><g fill="rgb(25.489807%, 26.669312%, 27.839661%)" fill-opacity="1"><g transform="translate(144.957526, 107.42032)"><g><path d="M 6.234375 -0.5 C 6.285156 -0.425781 6.3125 -0.351562 6.3125 -0.28125 C 6.3125 -0.175781 6.273438 -0.09375 6.203125 -0.03125 C 6.128906 0.0195312 6.050781 0.046875 5.96875 0.046875 C 5.882812 0.046875 5.8125 0.00390625 5.75 -0.078125 L 2.9375 -3.59375 L 1.578125 -2.3125 L 1.578125 -0.3125 C 1.566406 -0.21875 1.53125 -0.140625 1.46875 -0.078125 C 1.414062 -0.0234375 1.34375 0 1.25 0 C 1.15625 0 1.078125 -0.0234375 1.015625 -0.078125 C 0.960938 -0.140625 0.9375 -0.21875 0.9375 -0.3125 L 0.9375 -6.71875 C 0.9375 -6.8125 0.96875 -6.882812 1.03125 -6.9375 C 1.09375 -7 1.171875 -7.03125 1.265625 -7.03125 C 1.359375 -7.03125 1.429688 -7 1.484375 -6.9375 C 1.546875 -6.882812 1.578125 -6.8125 1.578125 -6.71875 L 1.578125 -3.078125 L 5.640625 -6.90625 C 5.703125 -6.976562 5.773438 -7.015625 5.859375 -7.015625 C 5.941406 -7.015625 6.007812 -6.984375 6.0625 -6.921875 C 6.125 -6.859375 6.15625 -6.789062 6.15625 -6.71875 C 6.15625 -6.632812 6.125 -6.566406 6.0625 -6.515625 L 3.421875 -4.046875 Z M 6.234375 -0.5 "/></g></g></g></svg>