<svg xmlns="http://www.w3.org/2000/svg" xmlns:xlink="http://www.w3.org/1999/xlink" width="300" zoomAndPan="magnify" viewBox="0 0 224.87999 225" height="300" preserveAspectRatio="xMidYMid meet" version="1.0"><defs><g><g id="id1"/></g><clipPath id="id2"><path d="M 28.570312 82 L 197.230469 82 L 197.230469 144 L 28.570312 144 Z M 28.570312 82 " clip-rule="nonzero"/></clipPath><clipPath id="id3"><path d="M 137 37.613281 L 153 37.613281 L 153 53 L 137 53 Z M 137 37.613281 " clip-rule="nonzero"/></clipPath></defs><path fill="rgb(84.709167%, 54.899597%, 52.159119%)" d="M 112.261719 19.746094 C 61.132812 19.746094 19.6875 61.195312 19.6875 112.320312 C 19.6875 163.449219 61.132812 204.898438 112.261719 204.898438 C 163.390625 204.898438 204.835938 163.449219 204.835938 112.320312 C 204.835938 61.195312 163.390625 19.746094 112.261719 19.746094 " fill-opacity="1" fill-rule="nonzero"/><g fill="rgb(0%, 0%, 0%)" fill-opacity="1"><g transform="translate(112.425604, 117.194044)"><g/></g></g><g clip-path="url(#id2)"><path fill="rgb(100%, 100%, 100%)" d="M 197.234375 112.820312 C 197.234375 121.460938 188.152344 129.367188 171.660156 135.078125 C 155.929688 140.523438 135.0625 143.523438 112.898438 143.523438 C 90.738281 143.523438 69.867188 140.523438 54.136719 135.078125 C 37.644531 129.367188 28.5625 121.464844 28.5625 112.820312 C 28.5625 104.183594 37.644531 96.28125 54.136719 90.570312 C 69.867188 85.121094 90.738281 82.121094 112.898438 82.121094 C 135.0625 82.121094 155.929688 85.121094 171.660156 90.570312 C 188.152344 96.28125 197.234375 104.183594 197.234375 112.820312 Z M 33.164062 112.820312 C 33.164062 125.433594 65.203125 138.933594 112.898438 138.933594 C 160.59375 138.933594 192.636719 125.433594 192.636719 112.820312 C 192.636719 100.210938 160.59375 86.710938 112.898438 86.710938 C 65.203125 86.710938 33.164062 100.210938 33.164062 112.820312 Z M 33.164062 112.820312 " fill-opacity="1" fill-rule="nonzero"/></g><path fill="rgb(100%, 100%, 100%)" d="M 166.890625 165.917969 C 166.890625 165.917969 166.890625 165.917969 166.890625 165.921875 C 166.890625 173.800781 164.570312 179.535156 160.179688 182.5 C 153.007812 187.34375 141.355469 184.273438 127.371094 173.847656 C 114.03125 163.90625 99.84375 148.34375 87.417969 130.03125 C 69.832031 104.117188 58.910156 77.175781 58.910156 59.726562 C 58.910156 51.84375 61.230469 46.109375 65.621094 43.144531 C 72.792969 38.300781 84.441406 41.375 98.425781 51.796875 C 111.765625 61.742188 125.957031 77.300781 138.378906 95.613281 C 155.964844 121.527344 166.890625 148.46875 166.890625 165.917969 Z M 63.507812 59.726562 C 63.507812 76.308594 74.128906 102.261719 91.226562 127.460938 C 117.964844 166.867188 147.132812 185.769531 157.601562 178.703125 C 161.476562 176.082031 162.292969 170.304688 162.292969 165.921875 C 162.292969 165.917969 162.292969 165.917969 162.292969 165.917969 C 162.292969 149.335938 151.671875 123.382812 134.570312 98.183594 C 122.429688 80.285156 108.613281 65.117188 95.675781 55.472656 C 83.558594 46.441406 73.542969 43.335938 68.199219 46.945312 C 64.320312 49.5625 63.507812 55.339844 63.507812 59.726562 Z M 63.507812 59.726562 " fill-opacity="1" fill-rule="nonzero"/><path fill="rgb(100%, 100%, 100%)" d="M 166.875 59.792969 C 166.875 64.65625 166.027344 70.347656 164.3125 76.75 C 160.015625 92.796875 150.804688 111.722656 138.378906 130.03125 C 132.5 138.699219 126.210938 146.773438 119.683594 154.03125 C 118.835938 154.976562 117.382812 155.054688 116.4375 154.207031 C 115.492188 153.363281 115.414062 151.910156 116.261719 150.96875 C 122.648438 143.867188 128.808594 135.957031 134.574219 127.460938 C 146.71875 109.5625 155.699219 91.132812 159.871094 75.566406 C 163.773438 60.988281 162.945312 50.554688 157.601562 46.945312 C 152.253906 43.335938 142.242188 46.445312 130.125 55.472656 C 117.1875 65.117188 103.371094 80.289062 91.226562 98.183594 C 64.488281 137.589844 57.734375 171.632812 68.199219 178.703125 C 72.898438 181.875 81.15625 179.902344 91.449219 173.140625 C 92.507812 172.441406 93.933594 172.738281 94.632812 173.796875 C 95.332031 174.855469 95.039062 176.277344 93.976562 176.972656 C 81.859375 184.933594 72.050781 186.84375 65.621094 182.503906 C 58.449219 177.660156 56.984375 165.722656 61.488281 148.898438 C 65.785156 132.847656 74.996094 113.921875 87.417969 95.613281 C 99.84375 77.300781 114.03125 61.742188 127.371094 51.800781 C 141.355469 41.375 153.007812 38.304688 160.179688 43.148438 C 164.621094 46.144531 166.875 51.871094 166.875 59.792969 Z M 166.875 59.792969 " fill-opacity="1" fill-rule="nonzero"/><path fill="rgb(94.509888%, 69.40918%, 31.369019%)" d="M 112.898438 92.902344 C 113.554688 92.902344 114.207031 92.933594 114.855469 92.996094 C 115.507812 93.0625 116.152344 93.15625 116.792969 93.285156 C 117.4375 93.410156 118.070312 93.570312 118.695312 93.757812 C 119.320312 93.949219 119.9375 94.167969 120.539062 94.417969 C 121.144531 94.667969 121.734375 94.945312 122.3125 95.253906 C 122.886719 95.5625 123.449219 95.894531 123.992188 96.257812 C 124.535156 96.621094 125.058594 97.007812 125.566406 97.421875 C 126.070312 97.835938 126.554688 98.273438 127.019531 98.734375 C 127.480469 99.195312 127.917969 99.679688 128.332031 100.183594 C 128.75 100.6875 129.136719 101.210938 129.5 101.753906 C 129.863281 102.296875 130.199219 102.855469 130.507812 103.429688 C 130.816406 104.007812 131.09375 104.597656 131.347656 105.199219 C 131.597656 105.800781 131.816406 106.414062 132.003906 107.039062 C 132.195312 107.664062 132.355469 108.296875 132.480469 108.9375 C 132.609375 109.574219 132.707031 110.21875 132.769531 110.871094 C 132.832031 111.519531 132.867188 112.167969 132.867188 112.820312 C 132.867188 113.472656 132.832031 114.125 132.769531 114.773438 C 132.707031 115.425781 132.609375 116.070312 132.480469 116.707031 C 132.355469 117.347656 132.195312 117.980469 132.003906 118.605469 C 131.816406 119.230469 131.597656 119.84375 131.347656 120.445312 C 131.09375 121.046875 130.816406 121.636719 130.507812 122.210938 C 130.199219 122.789062 129.863281 123.347656 129.5 123.890625 C 129.136719 124.433594 128.75 124.957031 128.332031 125.460938 C 127.917969 125.964844 127.480469 126.445312 127.019531 126.910156 C 126.554688 127.371094 126.070312 127.808594 125.566406 128.222656 C 125.058594 128.636719 124.535156 129.023438 123.992188 129.386719 C 123.449219 129.75 122.886719 130.082031 122.3125 130.390625 C 121.734375 130.699219 121.144531 130.976562 120.539062 131.226562 C 119.9375 131.476562 119.320312 131.695312 118.695312 131.886719 C 118.070312 132.074219 117.4375 132.234375 116.792969 132.359375 C 116.152344 132.488281 115.507812 132.582031 114.855469 132.648438 C 114.207031 132.710938 113.554688 132.742188 112.898438 132.742188 C 112.246094 132.742188 111.59375 132.710938 110.941406 132.648438 C 110.292969 132.582031 109.644531 132.488281 109.003906 132.359375 C 108.363281 132.234375 107.730469 132.074219 107.105469 131.886719 C 106.476562 131.695312 105.863281 131.476562 105.257812 131.226562 C 104.65625 130.976562 104.0625 130.699219 103.488281 130.390625 C 102.910156 130.082031 102.351562 129.75 101.808594 129.386719 C 101.261719 129.023438 100.738281 128.636719 100.234375 128.222656 C 99.726562 127.808594 99.242188 127.371094 98.78125 126.910156 C 98.320312 126.445312 97.878906 125.964844 97.464844 125.460938 C 97.050781 124.957031 96.660156 124.433594 96.296875 123.890625 C 95.933594 123.347656 95.597656 122.789062 95.289062 122.210938 C 94.984375 121.636719 94.703125 121.046875 94.453125 120.445312 C 94.203125 119.84375 93.984375 119.230469 93.792969 118.605469 C 93.601562 117.980469 93.445312 117.347656 93.316406 116.707031 C 93.1875 116.070312 93.09375 115.425781 93.03125 114.773438 C 92.964844 114.125 92.933594 113.472656 92.933594 112.820312 C 92.933594 112.167969 92.964844 111.519531 93.03125 110.871094 C 93.09375 110.21875 93.1875 109.574219 93.316406 108.9375 C 93.445312 108.296875 93.601562 107.664062 93.792969 107.039062 C 93.984375 106.414062 94.203125 105.800781 94.453125 105.199219 C 94.703125 104.597656 94.984375 104.007812 95.289062 103.429688 C 95.597656 102.855469 95.933594 102.296875 96.296875 101.753906 C 96.660156 101.210938 97.050781 100.6875 97.464844 100.183594 C 97.878906 99.679688 98.320312 99.195312 98.78125 98.734375 C 99.242188 98.273438 99.726562 97.835938 100.234375 97.421875 C 100.738281 97.007812 101.261719 96.621094 101.808594 96.257812 C 102.351562 95.894531 102.910156 95.5625 103.488281 95.253906 C 104.0625 94.945312 104.65625 94.667969 105.257812 94.417969 C 105.863281 94.167969 106.476562 93.949219 107.105469 93.757812 C 107.730469 93.570312 108.363281 93.410156 109.003906 93.285156 C 109.644531 93.15625 110.292969 93.0625 110.941406 92.996094 C 111.59375 92.933594 112.246094 92.902344 112.898438 92.902344 Z M 112.898438 92.902344 " fill-opacity="1" fill-rule="nonzero"/><path fill="rgb(94.509888%, 69.40918%, 31.369019%)" d="M 42.851562 120.882812 C 43.328125 120.882812 43.800781 120.929688 44.265625 121.023438 C 44.734375 121.117188 45.1875 121.253906 45.628906 121.433594 C 46.070312 121.617188 46.488281 121.839844 46.882812 122.105469 C 47.28125 122.371094 47.648438 122.667969 47.984375 123.007812 C 48.320312 123.34375 48.625 123.707031 48.886719 124.105469 C 49.152344 124.5 49.375 124.917969 49.558594 125.355469 C 49.742188 125.796875 49.878906 126.25 49.972656 126.714844 C 50.066406 127.183594 50.113281 127.652344 50.113281 128.128906 C 50.113281 128.605469 50.066406 129.074219 49.972656 129.542969 C 49.878906 130.007812 49.742188 130.460938 49.558594 130.902344 C 49.375 131.339844 49.152344 131.757812 48.886719 132.152344 C 48.625 132.550781 48.320312 132.914062 47.984375 133.25 C 47.648438 133.589844 47.28125 133.886719 46.882812 134.152344 C 46.488281 134.417969 46.070312 134.640625 45.628906 134.824219 C 45.1875 135.003906 44.734375 135.140625 44.265625 135.234375 C 43.800781 135.328125 43.328125 135.375 42.851562 135.375 C 42.375 135.375 41.902344 135.328125 41.433594 135.234375 C 40.964844 135.140625 40.511719 135.003906 40.070312 134.824219 C 39.632812 134.640625 39.210938 134.417969 38.816406 134.152344 C 38.417969 133.886719 38.054688 133.589844 37.714844 133.25 C 37.378906 132.914062 37.078125 132.550781 36.8125 132.152344 C 36.546875 131.757812 36.324219 131.339844 36.140625 130.902344 C 35.960938 130.460938 35.820312 130.007812 35.726562 129.542969 C 35.636719 129.074219 35.589844 128.605469 35.589844 128.128906 C 35.589844 127.652344 35.636719 127.183594 35.726562 126.714844 C 35.820312 126.25 35.960938 125.796875 36.140625 125.355469 C 36.324219 124.917969 36.546875 124.5 36.8125 124.105469 C 37.078125 123.707031 37.378906 123.34375 37.714844 123.007812 C 38.054688 122.667969 38.417969 122.371094 38.816406 122.105469 C 39.210938 121.839844 39.632812 121.617188 40.070312 121.433594 C 40.511719 121.253906 40.964844 121.117188 41.433594 121.023438 C 41.902344 120.929688 42.375 120.882812 42.851562 120.882812 Z M 42.851562 120.882812 " fill-opacity="1" fill-rule="nonzero"/><g clip-path="url(#id3)"><path fill="rgb(94.509888%, 69.40918%, 31.369019%)" d="M 144.96875 37.75 C 145.445312 37.75 145.917969 37.796875 146.386719 37.890625 C 146.855469 37.980469 147.308594 38.117188 147.75 38.300781 C 148.191406 38.484375 148.609375 38.707031 149.003906 38.96875 C 149.402344 39.234375 149.769531 39.535156 150.105469 39.871094 C 150.441406 40.207031 150.742188 40.574219 151.007812 40.96875 C 151.273438 41.363281 151.496094 41.78125 151.679688 42.222656 C 151.859375 42.660156 152 43.113281 152.09375 43.582031 C 152.183594 44.046875 152.230469 44.519531 152.230469 44.996094 C 152.230469 45.46875 152.183594 45.941406 152.09375 46.40625 C 152 46.875 151.859375 47.328125 151.679688 47.765625 C 151.496094 48.207031 151.273438 48.625 151.007812 49.019531 C 150.742188 49.414062 150.441406 49.78125 150.105469 50.117188 C 149.769531 50.453125 149.402344 50.753906 149.003906 51.019531 C 148.609375 51.28125 148.191406 51.507812 147.75 51.6875 C 147.308594 51.871094 146.855469 52.007812 146.386719 52.101562 C 145.917969 52.191406 145.445312 52.238281 144.96875 52.238281 C 144.492188 52.238281 144.019531 52.191406 143.554688 52.101562 C 143.085938 52.007812 142.632812 51.871094 142.191406 51.6875 C 141.75 51.507812 141.332031 51.28125 140.9375 51.019531 C 140.539062 50.753906 140.171875 50.453125 139.835938 50.117188 C 139.5 49.78125 139.199219 49.414062 138.933594 49.019531 C 138.667969 48.625 138.445312 48.207031 138.261719 47.765625 C 138.078125 47.328125 137.941406 46.875 137.847656 46.40625 C 137.753906 45.941406 137.707031 45.46875 137.707031 44.996094 C 137.707031 44.519531 137.753906 44.046875 137.847656 43.582031 C 137.941406 43.113281 138.078125 42.660156 138.261719 42.222656 C 138.445312 41.78125 138.667969 41.363281 138.933594 40.96875 C 139.199219 40.574219 139.5 40.207031 139.835938 39.871094 C 140.171875 39.535156 140.539062 39.234375 140.9375 38.96875 C 141.332031 38.707031 141.75 38.484375 142.191406 38.300781 C 142.632812 38.117188 143.085938 37.980469 143.554688 37.890625 C 144.019531 37.796875 144.492188 37.75 144.96875 37.75 Z M 144.96875 37.75 " fill-opacity="1" fill-rule="nonzero"/></g><path fill="rgb(94.509888%, 69.40918%, 31.369019%)" d="M 162.984375 158.4375 C 163.460938 158.4375 163.933594 158.484375 164.402344 158.578125 C 164.871094 158.671875 165.324219 158.808594 165.765625 158.988281 C 166.203125 159.171875 166.621094 159.394531 167.019531 159.660156 C 167.414062 159.921875 167.78125 160.222656 168.121094 160.558594 C 168.457031 160.898438 168.757812 161.261719 169.023438 161.660156 C 169.289062 162.054688 169.511719 162.472656 169.695312 162.910156 C 169.875 163.351562 170.015625 163.804688 170.105469 164.269531 C 170.199219 164.738281 170.246094 165.207031 170.246094 165.683594 C 170.246094 166.160156 170.199219 166.628906 170.105469 167.097656 C 170.015625 167.5625 169.875 168.015625 169.695312 168.457031 C 169.511719 168.894531 169.289062 169.3125 169.023438 169.707031 C 168.757812 170.105469 168.457031 170.46875 168.121094 170.804688 C 167.78125 171.144531 167.414062 171.441406 167.019531 171.707031 C 166.621094 171.972656 166.203125 172.195312 165.765625 172.378906 C 165.324219 172.558594 164.871094 172.695312 164.402344 172.789062 C 163.933594 172.882812 163.460938 172.929688 162.984375 172.929688 C 162.507812 172.929688 162.035156 172.882812 161.570312 172.789062 C 161.101562 172.695312 160.648438 172.558594 160.207031 172.378906 C 159.765625 172.195312 159.347656 171.972656 158.949219 171.707031 C 158.554688 171.441406 158.1875 171.144531 157.851562 170.804688 C 157.511719 170.46875 157.210938 170.105469 156.949219 169.707031 C 156.683594 169.3125 156.460938 168.894531 156.277344 168.457031 C 156.09375 168.015625 155.957031 167.5625 155.863281 167.097656 C 155.769531 166.628906 155.722656 166.160156 155.722656 165.683594 C 155.722656 165.207031 155.769531 164.738281 155.863281 164.269531 C 155.957031 163.804688 156.09375 163.351562 156.277344 162.910156 C 156.460938 162.472656 156.683594 162.054688 156.949219 161.660156 C 157.210938 161.261719 157.511719 160.898438 157.851562 160.558594 C 158.1875 160.222656 158.554688 159.921875 158.949219 159.660156 C 159.347656 159.394531 159.765625 159.171875 160.207031 158.988281 C 160.648438 158.808594 161.101562 158.671875 161.570312 158.578125 C 162.035156 158.484375 162.507812 158.4375 162.984375 158.4375 Z M 162.984375 158.4375 " fill-opacity="1" fill-rule="nonzero"/></svg>