<svg xmlns="http://www.w3.org/2000/svg" xmlns:xlink="http://www.w3.org/1999/xlink" width="150" zoomAndPan="magnify" viewBox="0 0 112.5 112.499997" height="150" preserveAspectRatio="xMidYMid meet" version="1.0"><defs><clipPath id="id1"><path d="M 5.625 5.625 L 106.875 5.625 L 106.875 106.875 L 5.625 106.875 Z M 5.625 5.625 " clip-rule="nonzero"/></clipPath></defs><path fill="rgb(78.819275%, 88.62915%, 39.608765%)" d="M 102.953125 56.25 C 102.953125 82.042969 82.042969 102.953125 56.25 102.953125 C 30.457031 102.953125 9.546875 82.042969 9.546875 56.25 C 9.546875 30.457031 30.457031 9.546875 56.25 9.546875 C 82.042969 9.546875 102.953125 30.457031 102.953125 56.25 Z M 102.953125 56.25 " fill-opacity="1" fill-rule="nonzero"/><g clip-path="url(#id1)"><path fill="rgb(78.819275%, 88.62915%, 39.608765%)" d="M 56.25 106.875 C 28.335938 106.875 5.625 84.167969 5.625 56.25 C 5.625 28.335938 28.335938 5.625 56.25 5.625 C 84.167969 5.625 106.875 28.335938 106.875 56.25 C 106.875 84.167969 84.167969 106.875 56.25 106.875 Z M 56.25 13.46875 C 32.660156 13.46875 13.46875 32.660156 13.46875 56.25 C 13.46875 79.839844 32.660156 99.03125 56.25 99.03125 C 79.839844 99.03125 99.03125 79.835938 99.03125 56.25 C 99.03125 32.660156 79.839844 13.46875 56.25 13.46875 Z M 56.25 13.46875 " fill-opacity="1" fill-rule="nonzero"/></g><path fill="rgb(100%, 100%, 100%)" d="M 50.132812 74.878906 C 49.082031 74.878906 48.078125 74.457031 47.335938 73.703125 L 32.867188 59 C 31.347656 57.453125 31.367188 54.976562 32.914062 53.453125 C 34.457031 51.941406 36.941406 51.957031 38.457031 53.5 L 50.019531 65.25 L 73.9375 38.910156 C 75.398438 37.304688 77.875 37.191406 79.472656 38.644531 C 81.078125 40.097656 81.195312 42.574219 79.738281 44.183594 L 53.035156 73.59375 C 52.308594 74.394531 51.289062 74.855469 50.210938 74.878906 C 50.183594 74.878906 50.160156 74.878906 50.132812 74.878906 Z M 50.132812 74.878906 " fill-opacity="1" fill-rule="nonzero"/></svg>