<svg xmlns="http://www.w3.org/2000/svg" xmlns:xlink="http://www.w3.org/1999/xlink" width="300" zoomAndPan="magnify" viewBox="0 0 224.87999 74.999997" height="100" preserveAspectRatio="xMidYMid meet" version="1.0"><defs><g><g id="id1"/><g id="id2"/></g><clipPath id="id3"><path d="M 17.984375 28 L 70.234375 28 L 70.234375 48 L 17.984375 48 Z M 17.984375 28 " clip-rule="nonzero"/></clipPath><clipPath id="id4"><path d="M 51 14.539062 L 57 14.539062 L 57 20 L 51 20 Z M 51 14.539062 " clip-rule="nonzero"/></clipPath></defs><g clip-path="url(#id3)"><path fill="rgb(100%, 100%, 100%)" d="M 70.238281 37.667969 C 70.238281 40.324219 67.421875 42.753906 62.316406 44.511719 C 57.441406 46.183594 50.976562 47.109375 44.109375 47.109375 C 37.242188 47.109375 30.777344 46.1875 25.90625 44.511719 C 20.796875 42.753906 17.984375 40.324219 17.984375 37.667969 C 17.984375 35.011719 20.796875 32.578125 25.90625 30.824219 C 30.777344 29.148438 37.242188 28.226562 44.109375 28.226562 C 50.976562 28.226562 57.441406 29.148438 62.316406 30.824219 C 67.421875 32.578125 70.238281 35.011719 70.238281 37.667969 Z M 19.40625 37.667969 C 19.40625 41.542969 29.332031 45.695312 44.109375 45.695312 C 58.886719 45.695312 68.8125 41.542969 68.8125 37.667969 C 68.8125 33.789062 58.886719 29.636719 44.109375 29.636719 C 29.332031 29.636719 19.40625 33.789062 19.40625 37.667969 Z M 19.40625 37.667969 " fill-opacity="1" fill-rule="nonzero"/></g><path fill="rgb(100%, 100%, 100%)" d="M 60.835938 53.992188 C 60.835938 53.996094 60.835938 53.996094 60.835938 53.996094 C 60.835938 56.417969 60.117188 58.179688 58.757812 59.09375 C 56.535156 60.582031 52.925781 59.636719 48.59375 56.433594 C 44.460938 53.375 40.066406 48.589844 36.214844 42.960938 C 30.769531 34.988281 27.382812 26.707031 27.382812 21.339844 C 27.382812 18.914062 28.101562 17.152344 29.464844 16.242188 C 31.683594 14.75 35.292969 15.695312 39.625 18.902344 C 43.757812 21.960938 48.15625 26.742188 52.003906 32.375 C 57.453125 40.34375 60.835938 48.628906 60.835938 53.992188 Z M 28.808594 21.339844 C 28.808594 26.4375 32.097656 34.417969 37.394531 42.167969 C 45.679688 54.285156 54.714844 60.097656 57.957031 57.925781 C 59.160156 57.121094 59.410156 55.34375 59.410156 53.996094 C 59.410156 53.996094 59.410156 53.996094 59.410156 53.992188 C 59.410156 48.894531 56.121094 40.914062 50.824219 33.164062 C 47.0625 27.664062 42.78125 22.996094 38.773438 20.03125 C 35.019531 17.253906 31.917969 16.300781 30.261719 17.410156 C 29.058594 18.214844 28.808594 19.992188 28.808594 21.339844 Z M 28.808594 21.339844 " fill-opacity="1" fill-rule="nonzero"/><path fill="rgb(100%, 100%, 100%)" d="M 60.832031 21.359375 C 60.832031 22.855469 60.570312 24.605469 60.039062 26.574219 C 58.707031 31.507812 55.851562 37.328125 52.003906 42.960938 C 50.183594 45.625 48.234375 48.109375 46.210938 50.339844 C 45.949219 50.628906 45.5 50.652344 45.207031 50.394531 C 44.914062 50.132812 44.890625 49.6875 45.152344 49.398438 C 47.128906 47.214844 49.039062 44.78125 50.824219 42.167969 C 54.585938 36.664062 57.371094 30.996094 58.660156 26.210938 C 59.871094 21.726562 59.613281 18.519531 57.957031 17.410156 C 56.304688 16.300781 53.199219 17.253906 49.445312 20.03125 C 45.4375 22.996094 41.160156 27.664062 37.394531 33.167969 C 29.113281 45.285156 27.019531 55.75 30.261719 57.925781 C 31.71875 58.902344 34.277344 58.292969 37.464844 56.214844 C 37.792969 56 38.234375 56.089844 38.453125 56.417969 C 38.667969 56.742188 38.578125 57.179688 38.246094 57.394531 C 34.492188 59.839844 31.457031 60.429688 29.464844 59.09375 C 27.242188 57.605469 26.785156 53.933594 28.183594 48.761719 C 29.515625 43.824219 32.367188 38.003906 36.214844 32.375 C 40.066406 26.746094 44.460938 21.960938 48.59375 18.902344 C 52.925781 15.695312 56.535156 14.75 58.757812 16.242188 C 60.132812 17.164062 60.832031 18.921875 60.832031 21.359375 Z M 60.832031 21.359375 " fill-opacity="1" fill-rule="nonzero"/><path fill="rgb(94.509888%, 69.40918%, 31.369019%)" d="M 44.109375 31.542969 C 44.515625 31.542969 44.917969 31.582031 45.316406 31.660156 C 45.714844 31.738281 46.101562 31.855469 46.476562 32.007812 C 46.851562 32.160156 47.207031 32.351562 47.546875 32.574219 C 47.882812 32.796875 48.195312 33.050781 48.484375 33.335938 C 48.769531 33.621094 49.027344 33.929688 49.253906 34.265625 C 49.480469 34.597656 49.667969 34.949219 49.824219 35.324219 C 49.980469 35.695312 50.097656 36.078125 50.175781 36.472656 C 50.257812 36.867188 50.296875 37.265625 50.296875 37.667969 C 50.296875 38.070312 50.257812 38.46875 50.175781 38.863281 C 50.097656 39.257812 49.980469 39.640625 49.824219 40.011719 C 49.667969 40.382812 49.480469 40.734375 49.253906 41.070312 C 49.027344 41.40625 48.769531 41.714844 48.484375 42 C 48.195312 42.28125 47.882812 42.535156 47.546875 42.761719 C 47.207031 42.984375 46.851562 43.171875 46.476562 43.328125 C 46.101562 43.480469 45.714844 43.597656 45.316406 43.675781 C 44.917969 43.753906 44.515625 43.792969 44.109375 43.792969 C 43.703125 43.792969 43.300781 43.753906 42.902344 43.675781 C 42.503906 43.597656 42.117188 43.480469 41.742188 43.328125 C 41.367188 43.171875 41.011719 42.984375 40.671875 42.761719 C 40.335938 42.535156 40.023438 42.28125 39.734375 42 C 39.449219 41.714844 39.191406 41.40625 38.96875 41.070312 C 38.742188 40.734375 38.550781 40.382812 38.394531 40.011719 C 38.238281 39.640625 38.121094 39.257812 38.042969 38.863281 C 37.964844 38.46875 37.925781 38.070312 37.925781 37.667969 C 37.925781 37.265625 37.964844 36.867188 38.042969 36.472656 C 38.121094 36.078125 38.238281 35.695312 38.394531 35.324219 C 38.550781 34.949219 38.742188 34.597656 38.96875 34.265625 C 39.191406 33.929688 39.449219 33.621094 39.734375 33.335938 C 40.023438 33.050781 40.335938 32.796875 40.671875 32.574219 C 41.011719 32.351562 41.367188 32.160156 41.742188 32.007812 C 42.117188 31.855469 42.503906 31.738281 42.902344 31.660156 C 43.300781 31.582031 43.703125 31.542969 44.109375 31.542969 Z M 44.109375 31.542969 " fill-opacity="1" fill-rule="nonzero"/><path fill="rgb(94.509888%, 69.40918%, 31.369019%)" d="M 22.410156 40.144531 C 22.707031 40.144531 22.992188 40.203125 23.269531 40.316406 C 23.546875 40.429688 23.789062 40.589844 24 40.796875 C 24.210938 41.007812 24.371094 41.25 24.488281 41.519531 C 24.601562 41.792969 24.660156 42.078125 24.660156 42.375 C 24.660156 42.667969 24.601562 42.953125 24.488281 43.226562 C 24.371094 43.5 24.210938 43.742188 24 43.949219 C 23.789062 44.160156 23.546875 44.320312 23.269531 44.433594 C 22.992188 44.546875 22.707031 44.601562 22.410156 44.601562 C 22.109375 44.601562 21.824219 44.546875 21.546875 44.433594 C 21.273438 44.320312 21.027344 44.160156 20.816406 43.949219 C 20.605469 43.742188 20.445312 43.5 20.332031 43.226562 C 20.214844 42.953125 20.160156 42.667969 20.160156 42.375 C 20.160156 42.078125 20.214844 41.792969 20.332031 41.519531 C 20.445312 41.25 20.605469 41.007812 20.816406 40.796875 C 21.027344 40.589844 21.273438 40.429688 21.546875 40.316406 C 21.824219 40.203125 22.109375 40.144531 22.410156 40.144531 Z M 22.410156 40.144531 " fill-opacity="1" fill-rule="nonzero"/><g clip-path="url(#id4)"><path fill="rgb(94.509888%, 69.40918%, 31.369019%)" d="M 54.046875 14.582031 C 54.34375 14.582031 54.632812 14.636719 54.90625 14.75 C 55.183594 14.863281 55.425781 15.023438 55.636719 15.234375 C 55.847656 15.441406 56.011719 15.683594 56.125 15.957031 C 56.238281 16.230469 56.296875 16.515625 56.296875 16.808594 C 56.296875 17.105469 56.238281 17.390625 56.125 17.664062 C 56.011719 17.933594 55.847656 18.175781 55.636719 18.386719 C 55.425781 18.59375 55.183594 18.753906 54.90625 18.867188 C 54.632812 18.980469 54.34375 19.039062 54.046875 19.039062 C 53.746094 19.039062 53.460938 18.980469 53.183594 18.867188 C 52.910156 18.753906 52.664062 18.59375 52.453125 18.386719 C 52.242188 18.175781 52.082031 17.933594 51.96875 17.664062 C 51.851562 17.390625 51.796875 17.105469 51.796875 16.808594 C 51.796875 16.515625 51.851562 16.230469 51.96875 15.957031 C 52.082031 15.683594 52.242188 15.441406 52.453125 15.234375 C 52.664062 15.023438 52.910156 14.863281 53.183594 14.75 C 53.460938 14.636719 53.746094 14.582031 54.046875 14.582031 Z M 54.046875 14.582031 " fill-opacity="1" fill-rule="nonzero"/></g><path fill="rgb(94.509888%, 69.40918%, 31.369019%)" d="M 59.625 51.695312 C 59.925781 51.695312 60.210938 51.75 60.488281 51.863281 C 60.761719 51.976562 61.007812 52.136719 61.21875 52.347656 C 61.429688 52.554688 61.589844 52.796875 61.707031 53.070312 C 61.820312 53.34375 61.875 53.625 61.875 53.921875 C 61.875 54.21875 61.820312 54.5 61.707031 54.773438 C 61.589844 55.046875 61.429688 55.289062 61.21875 55.496094 C 61.007812 55.707031 60.761719 55.867188 60.488281 55.980469 C 60.210938 56.09375 59.925781 56.148438 59.625 56.148438 C 59.328125 56.148438 59.042969 56.09375 58.765625 55.980469 C 58.492188 55.867188 58.246094 55.707031 58.035156 55.496094 C 57.824219 55.289062 57.664062 55.046875 57.546875 54.773438 C 57.433594 54.5 57.378906 54.21875 57.378906 53.921875 C 57.378906 53.625 57.433594 53.34375 57.546875 53.070312 C 57.664062 52.796875 57.824219 52.554688 58.035156 52.347656 C 58.246094 52.136719 58.492188 51.976562 58.765625 51.863281 C 59.042969 51.75 59.328125 51.695312 59.625 51.695312 Z M 59.625 51.695312 " fill-opacity="1" fill-rule="nonzero"/><g fill="rgb(94.509888%, 69.40918%, 31.369019%)" fill-opacity="0.4"><g transform="translate(64.601149, 57.946675)"><g><path d="M 22.234375 -43.71875 C 26.679688 -43.71875 30.207031 -42.460938 32.8125 -39.953125 C 35.425781 -37.441406 36.734375 -34.066406 36.734375 -29.828125 C 36.734375 -29.003906 36.675781 -28.117188 36.5625 -27.171875 L 35.078125 -15.125 C 34.660156 -11.5 33.378906 -8.398438 31.234375 -5.828125 C 29.097656 -3.253906 26.363281 -1.457031 23.03125 -0.4375 C 22.78125 -0.394531 22.613281 -0.207031 22.53125 0.125 L 22.046875 4.203125 C 22.003906 4.566406 21.867188 4.851562 21.640625 5.0625 C 21.410156 5.269531 21.132812 5.375 20.8125 5.375 L 11.796875 5.375 C 11.054688 5.375 10.726562 4.984375 10.8125 4.203125 L 11.296875 0.1875 C 11.296875 -0.144531 11.191406 -0.332031 10.984375 -0.375 C 8.273438 -1.320312 6.15625 -2.863281 4.625 -5 C 3.101562 -7.144531 2.34375 -9.738281 2.34375 -12.78125 C 2.34375 -13.8125 2.382812 -14.59375 2.46875 -15.125 L 3.953125 -27.171875 C 4.316406 -30.460938 5.332031 -33.351562 7 -35.84375 C 8.675781 -38.332031 10.828125 -40.265625 13.453125 -41.640625 C 16.085938 -43.023438 19.015625 -43.71875 22.234375 -43.71875 Z M 13.765625 -15.4375 C 13.722656 -15.1875 13.703125 -14.835938 13.703125 -14.390625 C 13.703125 -12.867188 14.09375 -11.664062 14.875 -10.78125 C 15.664062 -9.894531 16.71875 -9.453125 18.03125 -9.453125 C 19.550781 -9.453125 20.859375 -9.992188 21.953125 -11.078125 C 23.046875 -12.171875 23.691406 -13.625 23.890625 -15.4375 L 25.375 -27.78125 C 25.414062 -28.03125 25.4375 -28.382812 25.4375 -28.84375 C 25.4375 -30.363281 25.046875 -31.566406 24.265625 -32.453125 C 23.484375 -33.335938 22.414062 -33.78125 21.0625 -33.78125 C 19.53125 -33.78125 18.226562 -33.222656 17.15625 -32.109375 C 16.09375 -30.992188 15.457031 -29.550781 15.25 -27.78125 Z M 13.765625 -15.4375 "/></g></g></g><g fill="rgb(94.509888%, 69.40918%, 31.369019%)" fill-opacity="0.4"><g transform="translate(100.843204, 57.946675)"><g><path d="M 17.234375 0.5 C 12.742188 0.5 9.179688 -0.691406 6.546875 -3.078125 C 3.910156 -5.472656 2.59375 -8.707031 2.59375 -12.78125 C 2.59375 -13.269531 2.632812 -14.007812 2.71875 -15 L 6.046875 -42.046875 C 6.171875 -42.828125 6.601562 -43.21875 7.34375 -43.21875 L 16.296875 -43.21875 C 17.078125 -43.21875 17.429688 -42.828125 17.359375 -42.046875 L 14.015625 -15 C 13.972656 -14.800781 13.953125 -14.472656 13.953125 -14.015625 C 13.953125 -12.617188 14.351562 -11.507812 15.15625 -10.6875 C 15.957031 -9.863281 17.0625 -9.453125 18.46875 -9.453125 C 19.988281 -9.453125 21.28125 -9.953125 22.34375 -10.953125 C 23.414062 -11.960938 24.054688 -13.3125 24.265625 -15 L 27.546875 -42.046875 C 27.585938 -42.421875 27.726562 -42.707031 27.96875 -42.90625 C 28.21875 -43.113281 28.507812 -43.21875 28.84375 -43.21875 L 37.859375 -43.21875 C 38.179688 -43.21875 38.4375 -43.113281 38.625 -42.90625 C 38.8125 -42.707031 38.882812 -42.421875 38.84375 -42.046875 L 35.5 -15 C 35.132812 -11.914062 34.117188 -9.195312 32.453125 -6.84375 C 30.785156 -4.5 28.644531 -2.6875 26.03125 -1.40625 C 23.414062 -0.132812 20.484375 0.5 17.234375 0.5 Z M 17.234375 0.5 "/></g></g></g><g fill="rgb(94.509888%, 69.40918%, 31.369019%)" fill-opacity="0.4"><g transform="translate(137.764413, 57.946675)"><g><path d="M 2.28125 0 C 1.914062 0 1.648438 -0.101562 1.484375 -0.3125 C 1.316406 -0.519531 1.253906 -0.804688 1.296875 -1.171875 L 6.296875 -42.046875 C 6.421875 -42.828125 6.851562 -43.21875 7.59375 -43.21875 L 16.546875 -43.21875 C 16.921875 -43.21875 17.1875 -43.113281 17.34375 -42.90625 C 17.507812 -42.707031 17.570312 -42.421875 17.53125 -42.046875 L 12.53125 -1.171875 C 12.488281 -0.804688 12.351562 -0.519531 12.125 -0.3125 C 11.90625 -0.101562 11.609375 0 11.234375 0 Z M 2.28125 0 "/></g></g></g><g fill="rgb(94.509888%, 69.40918%, 31.369019%)" fill-opacity="0.4"><g transform="translate(153.693634, 57.946675)"><g><path d="M 1.359375 0 C 1.023438 0 0.765625 -0.101562 0.578125 -0.3125 C 0.398438 -0.519531 0.332031 -0.804688 0.375 -1.171875 L 1.421875 -9.6875 C 1.460938 -10.1875 1.6875 -10.660156 2.09375 -11.109375 L 21.921875 -32.671875 C 22.046875 -32.828125 22.085938 -32.96875 22.046875 -33.09375 C 22.003906 -33.21875 21.878906 -33.28125 21.671875 -33.28125 L 5.4375 -33.28125 C 5.101562 -33.28125 4.84375 -33.382812 4.65625 -33.59375 C 4.476562 -33.800781 4.410156 -34.085938 4.453125 -34.453125 L 5.375 -42.046875 C 5.414062 -42.421875 5.554688 -42.707031 5.796875 -42.90625 C 6.046875 -43.113281 6.335938 -43.21875 6.671875 -43.21875 L 35.015625 -43.21875 C 35.378906 -43.21875 35.644531 -43.113281 35.8125 -42.90625 C 35.976562 -42.707031 36.039062 -42.421875 36 -42.046875 L 34.953125 -33.53125 C 34.910156 -33.070312 34.703125 -32.597656 34.328125 -32.109375 L 14.328125 -10.5625 C 14.203125 -10.394531 14.171875 -10.25 14.234375 -10.125 C 14.296875 -10 14.410156 -9.9375 14.578125 -9.9375 L 30.9375 -9.9375 C 31.675781 -9.9375 32.003906 -9.546875 31.921875 -8.765625 L 31 -1.171875 C 30.875 -0.390625 30.441406 0 29.703125 0 Z M 1.359375 0 "/></g></g></g><g fill="rgb(100%, 100%, 100%)" fill-opacity="1"><g transform="translate(61.872043, 55.21757)"><g><path d="M 22.234375 -43.71875 C 26.679688 -43.71875 30.207031 -42.460938 32.8125 -39.953125 C 35.425781 -37.441406 36.734375 -34.066406 36.734375 -29.828125 C 36.734375 -29.003906 36.675781 -28.117188 36.5625 -27.171875 L 35.078125 -15.125 C 34.660156 -11.5 33.378906 -8.398438 31.234375 -5.828125 C 29.097656 -3.253906 26.363281 -1.457031 23.03125 -0.4375 C 22.78125 -0.394531 22.613281 -0.207031 22.53125 0.125 L 22.046875 4.203125 C 22.003906 4.566406 21.867188 4.851562 21.640625 5.0625 C 21.410156 5.269531 21.132812 5.375 20.8125 5.375 L 11.796875 5.375 C 11.054688 5.375 10.726562 4.984375 10.8125 4.203125 L 11.296875 0.1875 C 11.296875 -0.144531 11.191406 -0.332031 10.984375 -0.375 C 8.273438 -1.320312 6.15625 -2.863281 4.625 -5 C 3.101562 -7.144531 2.34375 -9.738281 2.34375 -12.78125 C 2.34375 -13.8125 2.382812 -14.59375 2.46875 -15.125 L 3.953125 -27.171875 C 4.316406 -30.460938 5.332031 -33.351562 7 -35.84375 C 8.675781 -38.332031 10.828125 -40.265625 13.453125 -41.640625 C 16.085938 -43.023438 19.015625 -43.71875 22.234375 -43.71875 Z M 13.765625 -15.4375 C 13.722656 -15.1875 13.703125 -14.835938 13.703125 -14.390625 C 13.703125 -12.867188 14.09375 -11.664062 14.875 -10.78125 C 15.664062 -9.894531 16.71875 -9.453125 18.03125 -9.453125 C 19.550781 -9.453125 20.859375 -9.992188 21.953125 -11.078125 C 23.046875 -12.171875 23.691406 -13.625 23.890625 -15.4375 L 25.375 -27.78125 C 25.414062 -28.03125 25.4375 -28.382812 25.4375 -28.84375 C 25.4375 -30.363281 25.046875 -31.566406 24.265625 -32.453125 C 23.484375 -33.335938 22.414062 -33.78125 21.0625 -33.78125 C 19.53125 -33.78125 18.226562 -33.222656 17.15625 -32.109375 C 16.09375 -30.992188 15.457031 -29.550781 15.25 -27.78125 Z M 13.765625 -15.4375 "/></g></g></g><g fill="rgb(100%, 100%, 100%)" fill-opacity="1"><g transform="translate(98.114099, 55.21757)"><g><path d="M 17.234375 0.5 C 12.742188 0.5 9.179688 -0.691406 6.546875 -3.078125 C 3.910156 -5.472656 2.59375 -8.707031 2.59375 -12.78125 C 2.59375 -13.269531 2.632812 -14.007812 2.71875 -15 L 6.046875 -42.046875 C 6.171875 -42.828125 6.601562 -43.21875 7.34375 -43.21875 L 16.296875 -43.21875 C 17.078125 -43.21875 17.429688 -42.828125 17.359375 -42.046875 L 14.015625 -15 C 13.972656 -14.800781 13.953125 -14.472656 13.953125 -14.015625 C 13.953125 -12.617188 14.351562 -11.507812 15.15625 -10.6875 C 15.957031 -9.863281 17.0625 -9.453125 18.46875 -9.453125 C 19.988281 -9.453125 21.28125 -9.953125 22.34375 -10.953125 C 23.414062 -11.960938 24.054688 -13.3125 24.265625 -15 L 27.546875 -42.046875 C 27.585938 -42.421875 27.726562 -42.707031 27.96875 -42.90625 C 28.21875 -43.113281 28.507812 -43.21875 28.84375 -43.21875 L 37.859375 -43.21875 C 38.179688 -43.21875 38.4375 -43.113281 38.625 -42.90625 C 38.8125 -42.707031 38.882812 -42.421875 38.84375 -42.046875 L 35.5 -15 C 35.132812 -11.914062 34.117188 -9.195312 32.453125 -6.84375 C 30.785156 -4.5 28.644531 -2.6875 26.03125 -1.40625 C 23.414062 -0.132812 20.484375 0.5 17.234375 0.5 Z M 17.234375 0.5 "/></g></g></g><g fill="rgb(100%, 100%, 100%)" fill-opacity="1"><g transform="translate(135.035308, 55.21757)"><g><path d="M 2.28125 0 C 1.914062 0 1.648438 -0.101562 1.484375 -0.3125 C 1.316406 -0.519531 1.253906 -0.804688 1.296875 -1.171875 L 6.296875 -42.046875 C 6.421875 -42.828125 6.851562 -43.21875 7.59375 -43.21875 L 16.546875 -43.21875 C 16.921875 -43.21875 17.1875 -43.113281 17.34375 -42.90625 C 17.507812 -42.707031 17.570312 -42.421875 17.53125 -42.046875 L 12.53125 -1.171875 C 12.488281 -0.804688 12.351562 -0.519531 12.125 -0.3125 C 11.90625 -0.101562 11.609375 0 11.234375 0 Z M 2.28125 0 "/></g></g></g><g fill="rgb(100%, 100%, 100%)" fill-opacity="1"><g transform="translate(150.964529, 55.21757)"><g><path d="M 1.359375 0 C 1.023438 0 0.765625 -0.101562 0.578125 -0.3125 C 0.398438 -0.519531 0.332031 -0.804688 0.375 -1.171875 L 1.421875 -9.6875 C 1.460938 -10.1875 1.6875 -10.660156 2.09375 -11.109375 L 21.921875 -32.671875 C 22.046875 -32.828125 22.085938 -32.96875 22.046875 -33.09375 C 22.003906 -33.21875 21.878906 -33.28125 21.671875 -33.28125 L 5.4375 -33.28125 C 5.101562 -33.28125 4.84375 -33.382812 4.65625 -33.59375 C 4.476562 -33.800781 4.410156 -34.085938 4.453125 -34.453125 L 5.375 -42.046875 C 5.414062 -42.421875 5.554688 -42.707031 5.796875 -42.90625 C 6.046875 -43.113281 6.335938 -43.21875 6.671875 -43.21875 L 35.015625 -43.21875 C 35.378906 -43.21875 35.644531 -43.113281 35.8125 -42.90625 C 35.976562 -42.707031 36.039062 -42.421875 36 -42.046875 L 34.953125 -33.53125 C 34.910156 -33.070312 34.703125 -32.597656 34.328125 -32.109375 L 14.328125 -10.5625 C 14.203125 -10.394531 14.171875 -10.25 14.234375 -10.125 C 14.296875 -10 14.410156 -9.9375 14.578125 -9.9375 L 30.9375 -9.9375 C 31.675781 -9.9375 32.003906 -9.546875 31.921875 -8.765625 L 31 -1.171875 C 30.875 -0.390625 30.441406 0 29.703125 0 Z M 1.359375 0 "/></g></g></g><g fill="rgb(94.509888%, 69.40918%, 31.369019%)" fill-opacity="0.4"><g transform="translate(86.798125, 65.461143)"><g><path d="M 6.53125 -7.6875 C 6.757812 -7.5625 6.875 -7.363281 6.875 -7.09375 C 6.875 -6.9375 6.816406 -6.78125 6.703125 -6.625 C 6.585938 -6.46875 6.429688 -6.390625 6.234375 -6.390625 C 6.097656 -6.390625 5.96875 -6.421875 5.84375 -6.484375 C 5.46875 -6.660156 5.0625 -6.75 4.625 -6.75 C 4.082031 -6.75 3.609375 -6.632812 3.203125 -6.40625 C 2.804688 -6.1875 2.5 -5.867188 2.28125 -5.453125 C 2.070312 -5.046875 1.96875 -4.578125 1.96875 -4.046875 C 1.96875 -3.128906 2.207031 -2.4375 2.6875 -1.96875 C 3.175781 -1.5 3.820312 -1.265625 4.625 -1.265625 C 5.09375 -1.265625 5.5 -1.351562 5.84375 -1.53125 C 5.976562 -1.59375 6.101562 -1.625 6.21875 -1.625 C 6.414062 -1.625 6.582031 -1.539062 6.71875 -1.375 C 6.832031 -1.226562 6.890625 -1.070312 6.890625 -0.90625 C 6.890625 -0.78125 6.859375 -0.664062 6.796875 -0.5625 C 6.734375 -0.46875 6.644531 -0.390625 6.53125 -0.328125 C 5.9375 -0.0351562 5.300781 0.109375 4.625 0.109375 C 3.863281 0.109375 3.164062 -0.046875 2.53125 -0.359375 C 1.90625 -0.679688 1.40625 -1.15625 1.03125 -1.78125 C 0.65625 -2.40625 0.46875 -3.160156 0.46875 -4.046875 C 0.46875 -4.828125 0.644531 -5.53125 1 -6.15625 C 1.351562 -6.78125 1.84375 -7.265625 2.46875 -7.609375 C 3.101562 -7.960938 3.820312 -8.140625 4.625 -8.140625 C 5.300781 -8.140625 5.9375 -7.988281 6.53125 -7.6875 Z M 6.53125 -7.6875 "/></g></g></g><g fill="rgb(94.509888%, 69.40918%, 31.369019%)" fill-opacity="0.4"><g transform="translate(94.031003, 65.461143)"><g><path d="M 6.609375 -8.09375 C 6.804688 -8.09375 6.96875 -8.023438 7.09375 -7.890625 C 7.21875 -7.765625 7.28125 -7.597656 7.28125 -7.390625 L 7.28125 -3.203125 C 7.28125 -2.566406 7.144531 -2.003906 6.875 -1.515625 C 6.601562 -1.023438 6.222656 -0.640625 5.734375 -0.359375 C 5.253906 -0.078125 4.703125 0.0625 4.078125 0.0625 C 3.453125 0.0625 2.894531 -0.078125 2.40625 -0.359375 C 1.914062 -0.640625 1.535156 -1.023438 1.265625 -1.515625 C 0.992188 -2.003906 0.859375 -2.566406 0.859375 -3.203125 L 0.859375 -7.390625 C 0.859375 -7.585938 0.925781 -7.753906 1.0625 -7.890625 C 1.207031 -8.023438 1.390625 -8.09375 1.609375 -8.09375 C 1.785156 -8.09375 1.941406 -8.023438 2.078125 -7.890625 C 2.222656 -7.753906 2.296875 -7.585938 2.296875 -7.390625 L 2.296875 -3.203125 C 2.296875 -2.835938 2.375 -2.507812 2.53125 -2.21875 C 2.695312 -1.9375 2.914062 -1.71875 3.1875 -1.5625 C 3.46875 -1.40625 3.765625 -1.328125 4.078125 -1.328125 C 4.410156 -1.328125 4.71875 -1.40625 5 -1.5625 C 5.289062 -1.71875 5.519531 -1.9375 5.6875 -2.21875 C 5.863281 -2.507812 5.953125 -2.835938 5.953125 -3.203125 L 5.953125 -7.390625 C 5.953125 -7.597656 6.007812 -7.765625 6.125 -7.890625 C 6.238281 -8.023438 6.398438 -8.09375 6.609375 -8.09375 Z M 6.609375 -8.09375 "/></g></g></g><g fill="rgb(94.509888%, 69.40918%, 31.369019%)" fill-opacity="0.4"><g transform="translate(102.163669, 65.461143)"><g><path d="M 5.328125 -1.34375 C 5.523438 -1.34375 5.691406 -1.28125 5.828125 -1.15625 C 5.960938 -1.03125 6.03125 -0.867188 6.03125 -0.671875 C 6.03125 -0.472656 5.960938 -0.3125 5.828125 -0.1875 C 5.691406 -0.0625 5.523438 0 5.328125 0 L 1.578125 0 C 1.367188 0 1.195312 -0.0664062 1.0625 -0.203125 C 0.925781 -0.335938 0.859375 -0.503906 0.859375 -0.703125 L 0.859375 -7.375 C 0.859375 -7.570312 0.925781 -7.738281 1.0625 -7.875 C 1.207031 -8.007812 1.390625 -8.078125 1.609375 -8.078125 C 1.796875 -8.078125 1.957031 -8.007812 2.09375 -7.875 C 2.238281 -7.738281 2.3125 -7.570312 2.3125 -7.375 L 2.3125 -1.34375 Z M 5.328125 -1.34375 "/></g></g></g><g fill="rgb(94.509888%, 69.40918%, 31.369019%)" fill-opacity="0.4"><g transform="translate(108.646725, 65.461143)"><g><path d="M 6.171875 -8.078125 C 6.378906 -8.078125 6.546875 -8.015625 6.671875 -7.890625 C 6.804688 -7.773438 6.875 -7.613281 6.875 -7.40625 C 6.875 -7.207031 6.804688 -7.046875 6.671875 -6.921875 C 6.546875 -6.804688 6.378906 -6.75 6.171875 -6.75 L 4.359375 -6.75 L 4.359375 -0.703125 C 4.359375 -0.503906 4.285156 -0.335938 4.140625 -0.203125 C 3.992188 -0.0664062 3.816406 0 3.609375 0 C 3.390625 0 3.207031 -0.0664062 3.0625 -0.203125 C 2.925781 -0.335938 2.859375 -0.503906 2.859375 -0.703125 L 2.859375 -6.75 L 1.046875 -6.75 C 0.835938 -6.75 0.664062 -6.8125 0.53125 -6.9375 C 0.40625 -7.0625 0.34375 -7.222656 0.34375 -7.421875 C 0.34375 -7.617188 0.410156 -7.773438 0.546875 -7.890625 C 0.679688 -8.015625 0.847656 -8.078125 1.046875 -8.078125 Z M 6.171875 -8.078125 "/></g></g></g><g fill="rgb(94.509888%, 69.40918%, 31.369019%)" fill-opacity="0.4"><g transform="translate(115.868066, 65.461143)"><g><path d="M 6.609375 -8.09375 C 6.804688 -8.09375 6.96875 -8.023438 7.09375 -7.890625 C 7.21875 -7.765625 7.28125 -7.597656 7.28125 -7.390625 L 7.28125 -3.203125 C 7.28125 -2.566406 7.144531 -2.003906 6.875 -1.515625 C 6.601562 -1.023438 6.222656 -0.640625 5.734375 -0.359375 C 5.253906 -0.078125 4.703125 0.0625 4.078125 0.0625 C 3.453125 0.0625 2.894531 -0.078125 2.40625 -0.359375 C 1.914062 -0.640625 1.535156 -1.023438 1.265625 -1.515625 C 0.992188 -2.003906 0.859375 -2.566406 0.859375 -3.203125 L 0.859375 -7.390625 C 0.859375 -7.585938 0.925781 -7.753906 1.0625 -7.890625 C 1.207031 -8.023438 1.390625 -8.09375 1.609375 -8.09375 C 1.785156 -8.09375 1.941406 -8.023438 2.078125 -7.890625 C 2.222656 -7.753906 2.296875 -7.585938 2.296875 -7.390625 L 2.296875 -3.203125 C 2.296875 -2.835938 2.375 -2.507812 2.53125 -2.21875 C 2.695312 -1.9375 2.914062 -1.71875 3.1875 -1.5625 C 3.46875 -1.40625 3.765625 -1.328125 4.078125 -1.328125 C 4.410156 -1.328125 4.71875 -1.40625 5 -1.5625 C 5.289062 -1.71875 5.519531 -1.9375 5.6875 -2.21875 C 5.863281 -2.507812 5.953125 -2.835938 5.953125 -3.203125 L 5.953125 -7.390625 C 5.953125 -7.597656 6.007812 -7.765625 6.125 -7.890625 C 6.238281 -8.023438 6.398438 -8.09375 6.609375 -8.09375 Z M 6.609375 -8.09375 "/></g></g></g><g fill="rgb(94.509888%, 69.40918%, 31.369019%)" fill-opacity="0.4"><g transform="translate(124.000732, 65.461143)"><g><path d="M 7.203125 -1.125 C 7.304688 -1.070312 7.382812 -0.992188 7.4375 -0.890625 C 7.5 -0.785156 7.53125 -0.679688 7.53125 -0.578125 C 7.53125 -0.441406 7.484375 -0.316406 7.390625 -0.203125 C 7.273438 -0.0546875 7.097656 0.015625 6.859375 0.015625 C 6.671875 0.015625 6.5 -0.0234375 6.34375 -0.109375 C 5.789062 -0.429688 5.515625 -1.078125 5.515625 -2.046875 C 5.515625 -2.316406 5.425781 -2.53125 5.25 -2.6875 C 5.070312 -2.851562 4.8125 -2.9375 4.46875 -2.9375 L 2.3125 -2.9375 L 2.3125 -0.703125 C 2.3125 -0.492188 2.253906 -0.320312 2.140625 -0.1875 C 2.023438 -0.0625 1.878906 0 1.703125 0 C 1.472656 0 1.273438 -0.0664062 1.109375 -0.203125 C 0.941406 -0.335938 0.859375 -0.503906 0.859375 -0.703125 L 0.859375 -7.375 C 0.859375 -7.570312 0.925781 -7.738281 1.0625 -7.875 C 1.195312 -8.007812 1.367188 -8.078125 1.578125 -8.078125 L 4.890625 -8.078125 C 5.296875 -8.078125 5.675781 -7.96875 6.03125 -7.75 C 6.382812 -7.539062 6.664062 -7.242188 6.875 -6.859375 C 7.082031 -6.484375 7.1875 -6.0625 7.1875 -5.59375 C 7.1875 -5.207031 7.082031 -4.832031 6.875 -4.46875 C 6.664062 -4.101562 6.398438 -3.816406 6.078125 -3.609375 C 6.554688 -3.265625 6.820312 -2.804688 6.875 -2.234375 C 6.894531 -2.117188 6.90625 -2 6.90625 -1.875 C 6.9375 -1.644531 6.96875 -1.476562 7 -1.375 C 7.03125 -1.269531 7.097656 -1.1875 7.203125 -1.125 Z M 4.84375 -4.140625 C 4.976562 -4.140625 5.109375 -4.203125 5.234375 -4.328125 C 5.367188 -4.460938 5.476562 -4.640625 5.5625 -4.859375 C 5.644531 -5.078125 5.6875 -5.3125 5.6875 -5.5625 C 5.6875 -5.78125 5.644531 -5.976562 5.5625 -6.15625 C 5.476562 -6.34375 5.367188 -6.488281 5.234375 -6.59375 C 5.109375 -6.695312 4.976562 -6.75 4.84375 -6.75 L 2.3125 -6.75 L 2.3125 -4.140625 Z M 4.84375 -4.140625 "/></g></g></g><g fill="rgb(94.509888%, 69.40918%, 31.369019%)" fill-opacity="0.4"><g transform="translate(131.925754, 65.461143)"><g><path d="M 5.4375 -1.328125 C 5.632812 -1.328125 5.800781 -1.257812 5.9375 -1.125 C 6.070312 -0.988281 6.140625 -0.832031 6.140625 -0.65625 C 6.140625 -0.46875 6.070312 -0.3125 5.9375 -0.1875 C 5.800781 -0.0625 5.632812 0 5.4375 0 L 1.578125 0 C 1.367188 0 1.195312 -0.0664062 1.0625 -0.203125 C 0.925781 -0.335938 0.859375 -0.503906 0.859375 -0.703125 L 0.859375 -7.375 C 0.859375 -7.570312 0.925781 -7.738281 1.0625 -7.875 C 1.195312 -8.007812 1.367188 -8.078125 1.578125 -8.078125 L 5.4375 -8.078125 C 5.632812 -8.078125 5.800781 -8.015625 5.9375 -7.890625 C 6.070312 -7.765625 6.140625 -7.601562 6.140625 -7.40625 C 6.140625 -7.207031 6.070312 -7.046875 5.9375 -6.921875 C 5.8125 -6.804688 5.644531 -6.75 5.4375 -6.75 L 2.3125 -6.75 L 2.3125 -4.796875 L 4.921875 -4.796875 C 5.117188 -4.796875 5.285156 -4.726562 5.421875 -4.59375 C 5.554688 -4.46875 5.625 -4.304688 5.625 -4.109375 C 5.625 -3.921875 5.554688 -3.765625 5.421875 -3.640625 C 5.296875 -3.523438 5.128906 -3.46875 4.921875 -3.46875 L 2.3125 -3.46875 L 2.3125 -1.328125 Z M 5.4375 -1.328125 "/></g></g></g><g fill="rgb(94.509888%, 69.40918%, 31.369019%)" fill-opacity="0.4"><g transform="translate(138.524174, 65.461143)"><g/></g></g><g fill="rgb(94.509888%, 69.40918%, 31.369019%)" fill-opacity="0.4"><g transform="translate(141.754169, 65.461143)"><g><path d="M 6.828125 -4.359375 C 7.023438 -4.359375 7.1875 -4.289062 7.3125 -4.15625 C 7.445312 -4.019531 7.515625 -3.851562 7.515625 -3.65625 L 7.515625 -1.21875 C 7.515625 -0.945312 7.394531 -0.738281 7.15625 -0.59375 C 6.40625 -0.125 5.578125 0.109375 4.671875 0.109375 C 3.910156 0.109375 3.207031 -0.0703125 2.5625 -0.4375 C 1.914062 -0.8125 1.40625 -1.316406 1.03125 -1.953125 C 0.65625 -2.585938 0.46875 -3.285156 0.46875 -4.046875 C 0.46875 -4.796875 0.65625 -5.488281 1.03125 -6.125 C 1.40625 -6.757812 1.914062 -7.265625 2.5625 -7.640625 C 3.207031 -8.015625 3.910156 -8.203125 4.671875 -8.203125 C 5.429688 -8.203125 6.09375 -8.046875 6.65625 -7.734375 C 6.769531 -7.671875 6.859375 -7.585938 6.921875 -7.484375 C 6.984375 -7.390625 7.015625 -7.285156 7.015625 -7.171875 C 7.015625 -6.972656 6.945312 -6.800781 6.8125 -6.65625 C 6.6875 -6.519531 6.53125 -6.453125 6.34375 -6.453125 C 6.226562 -6.453125 6.101562 -6.484375 5.96875 -6.546875 C 5.550781 -6.722656 5.117188 -6.8125 4.671875 -6.8125 C 4.179688 -6.8125 3.726562 -6.6875 3.3125 -6.4375 C 2.894531 -6.1875 2.566406 -5.847656 2.328125 -5.421875 C 2.085938 -5.003906 1.96875 -4.546875 1.96875 -4.046875 C 1.96875 -3.546875 2.085938 -3.082031 2.328125 -2.65625 C 2.566406 -2.226562 2.894531 -1.890625 3.3125 -1.640625 C 3.726562 -1.390625 4.179688 -1.265625 4.671875 -1.265625 C 4.890625 -1.265625 5.117188 -1.285156 5.359375 -1.328125 C 5.609375 -1.367188 5.828125 -1.421875 6.015625 -1.484375 L 6.015625 -2.984375 L 4.9375 -2.984375 C 4.726562 -2.984375 4.554688 -3.046875 4.421875 -3.171875 C 4.285156 -3.304688 4.21875 -3.472656 4.21875 -3.671875 C 4.21875 -3.867188 4.285156 -4.03125 4.421875 -4.15625 C 4.554688 -4.289062 4.726562 -4.359375 4.9375 -4.359375 Z M 6.828125 -4.359375 "/></g></g></g><g fill="rgb(94.509888%, 69.40918%, 31.369019%)" fill-opacity="0.4"><g transform="translate(149.783009, 65.461143)"><g><path d="M 5.4375 -1.328125 C 5.632812 -1.328125 5.800781 -1.257812 5.9375 -1.125 C 6.070312 -0.988281 6.140625 -0.832031 6.140625 -0.65625 C 6.140625 -0.46875 6.070312 -0.3125 5.9375 -0.1875 C 5.800781 -0.0625 5.632812 0 5.4375 0 L 1.578125 0 C 1.367188 0 1.195312 -0.0664062 1.0625 -0.203125 C 0.925781 -0.335938 0.859375 -0.503906 0.859375 -0.703125 L 0.859375 -7.375 C 0.859375 -7.570312 0.925781 -7.738281 1.0625 -7.875 C 1.195312 -8.007812 1.367188 -8.078125 1.578125 -8.078125 L 5.4375 -8.078125 C 5.632812 -8.078125 5.800781 -8.015625 5.9375 -7.890625 C 6.070312 -7.765625 6.140625 -7.601562 6.140625 -7.40625 C 6.140625 -7.207031 6.070312 -7.046875 5.9375 -6.921875 C 5.8125 -6.804688 5.644531 -6.75 5.4375 -6.75 L 2.3125 -6.75 L 2.3125 -4.796875 L 4.921875 -4.796875 C 5.117188 -4.796875 5.285156 -4.726562 5.421875 -4.59375 C 5.554688 -4.46875 5.625 -4.304688 5.625 -4.109375 C 5.625 -3.921875 5.554688 -3.765625 5.421875 -3.640625 C 5.296875 -3.523438 5.128906 -3.46875 4.921875 -3.46875 L 2.3125 -3.46875 L 2.3125 -1.328125 Z M 5.4375 -1.328125 "/></g></g></g><g fill="rgb(94.509888%, 69.40918%, 31.369019%)" fill-opacity="0.4"><g transform="translate(156.381429, 65.461143)"><g><path d="M 5.4375 -1.328125 C 5.632812 -1.328125 5.800781 -1.257812 5.9375 -1.125 C 6.070312 -0.988281 6.140625 -0.832031 6.140625 -0.65625 C 6.140625 -0.46875 6.070312 -0.3125 5.9375 -0.1875 C 5.800781 -0.0625 5.632812 0 5.4375 0 L 1.578125 0 C 1.367188 0 1.195312 -0.0664062 1.0625 -0.203125 C 0.925781 -0.335938 0.859375 -0.503906 0.859375 -0.703125 L 0.859375 -7.375 C 0.859375 -7.570312 0.925781 -7.738281 1.0625 -7.875 C 1.195312 -8.007812 1.367188 -8.078125 1.578125 -8.078125 L 5.4375 -8.078125 C 5.632812 -8.078125 5.800781 -8.015625 5.9375 -7.890625 C 6.070312 -7.765625 6.140625 -7.601562 6.140625 -7.40625 C 6.140625 -7.207031 6.070312 -7.046875 5.9375 -6.921875 C 5.8125 -6.804688 5.644531 -6.75 5.4375 -6.75 L 2.3125 -6.75 L 2.3125 -4.796875 L 4.921875 -4.796875 C 5.117188 -4.796875 5.285156 -4.726562 5.421875 -4.59375 C 5.554688 -4.46875 5.625 -4.304688 5.625 -4.109375 C 5.625 -3.921875 5.554688 -3.765625 5.421875 -3.640625 C 5.296875 -3.523438 5.128906 -3.46875 4.921875 -3.46875 L 2.3125 -3.46875 L 2.3125 -1.328125 Z M 5.4375 -1.328125 "/></g></g></g><g fill="rgb(94.509888%, 69.40918%, 31.369019%)" fill-opacity="0.4"><g transform="translate(162.979849, 65.461143)"><g><path d="M 7.0625 -1.203125 C 7.101562 -1.140625 7.140625 -1.0625 7.171875 -0.96875 C 7.203125 -0.882812 7.21875 -0.804688 7.21875 -0.734375 C 7.21875 -0.523438 7.140625 -0.347656 6.984375 -0.203125 C 6.828125 -0.0664062 6.644531 0 6.4375 0 C 6.332031 0 6.234375 -0.0195312 6.140625 -0.0625 C 6.046875 -0.113281 5.96875 -0.179688 5.90625 -0.265625 L 3.40625 -3.5625 L 2.3125 -2.515625 L 2.3125 -0.703125 C 2.3125 -0.492188 2.242188 -0.320312 2.109375 -0.1875 C 1.972656 -0.0625 1.796875 0 1.578125 0 C 1.367188 0 1.195312 -0.0664062 1.0625 -0.203125 C 0.925781 -0.335938 0.859375 -0.503906 0.859375 -0.703125 L 0.859375 -7.375 C 0.859375 -7.570312 0.925781 -7.738281 1.0625 -7.875 C 1.207031 -8.007812 1.390625 -8.078125 1.609375 -8.078125 C 1.816406 -8.078125 1.984375 -8.007812 2.109375 -7.875 C 2.242188 -7.75 2.3125 -7.582031 2.3125 -7.375 L 2.3125 -4.234375 L 6 -7.875 C 6.175781 -8.050781 6.363281 -8.140625 6.5625 -8.140625 C 6.738281 -8.140625 6.890625 -8.066406 7.015625 -7.921875 C 7.140625 -7.773438 7.203125 -7.617188 7.203125 -7.453125 C 7.203125 -7.296875 7.132812 -7.148438 7 -7.015625 L 4.484375 -4.609375 Z M 7.0625 -1.203125 "/></g></g></g><g fill="rgb(100%, 100%, 100%)" fill-opacity="1"><g transform="translate(86.28767, 64.950686)"><g><path d="M 6.53125 -7.6875 C 6.757812 -7.5625 6.875 -7.363281 6.875 -7.09375 C 6.875 -6.9375 6.816406 -6.78125 6.703125 -6.625 C 6.585938 -6.46875 6.429688 -6.390625 6.234375 -6.390625 C 6.097656 -6.390625 5.96875 -6.421875 5.84375 -6.484375 C 5.46875 -6.660156 5.0625 -6.75 4.625 -6.75 C 4.082031 -6.75 3.609375 -6.632812 3.203125 -6.40625 C 2.804688 -6.1875 2.5 -5.867188 2.28125 -5.453125 C 2.070312 -5.046875 1.96875 -4.578125 1.96875 -4.046875 C 1.96875 -3.128906 2.207031 -2.4375 2.6875 -1.96875 C 3.175781 -1.5 3.820312 -1.265625 4.625 -1.265625 C 5.09375 -1.265625 5.5 -1.351562 5.84375 -1.53125 C 5.976562 -1.59375 6.101562 -1.625 6.21875 -1.625 C 6.414062 -1.625 6.582031 -1.539062 6.71875 -1.375 C 6.832031 -1.226562 6.890625 -1.070312 6.890625 -0.90625 C 6.890625 -0.78125 6.859375 -0.664062 6.796875 -0.5625 C 6.734375 -0.46875 6.644531 -0.390625 6.53125 -0.328125 C 5.9375 -0.0351562 5.300781 0.109375 4.625 0.109375 C 3.863281 0.109375 3.164062 -0.046875 2.53125 -0.359375 C 1.90625 -0.679688 1.40625 -1.15625 1.03125 -1.78125 C 0.65625 -2.40625 0.46875 -3.160156 0.46875 -4.046875 C 0.46875 -4.828125 0.644531 -5.53125 1 -6.15625 C 1.351562 -6.78125 1.84375 -7.265625 2.46875 -7.609375 C 3.101562 -7.960938 3.820312 -8.140625 4.625 -8.140625 C 5.300781 -8.140625 5.9375 -7.988281 6.53125 -7.6875 Z M 6.53125 -7.6875 "/></g></g></g><g fill="rgb(100%, 100%, 100%)" fill-opacity="1"><g transform="translate(93.520548, 64.950686)"><g><path d="M 6.609375 -8.09375 C 6.804688 -8.09375 6.96875 -8.023438 7.09375 -7.890625 C 7.21875 -7.765625 7.28125 -7.597656 7.28125 -7.390625 L 7.28125 -3.203125 C 7.28125 -2.566406 7.144531 -2.003906 6.875 -1.515625 C 6.601562 -1.023438 6.222656 -0.640625 5.734375 -0.359375 C 5.253906 -0.078125 4.703125 0.0625 4.078125 0.0625 C 3.453125 0.0625 2.894531 -0.078125 2.40625 -0.359375 C 1.914062 -0.640625 1.535156 -1.023438 1.265625 -1.515625 C 0.992188 -2.003906 0.859375 -2.566406 0.859375 -3.203125 L 0.859375 -7.390625 C 0.859375 -7.585938 0.925781 -7.753906 1.0625 -7.890625 C 1.207031 -8.023438 1.390625 -8.09375 1.609375 -8.09375 C 1.785156 -8.09375 1.941406 -8.023438 2.078125 -7.890625 C 2.222656 -7.753906 2.296875 -7.585938 2.296875 -7.390625 L 2.296875 -3.203125 C 2.296875 -2.835938 2.375 -2.507812 2.53125 -2.21875 C 2.695312 -1.9375 2.914062 -1.71875 3.1875 -1.5625 C 3.46875 -1.40625 3.765625 -1.328125 4.078125 -1.328125 C 4.410156 -1.328125 4.71875 -1.40625 5 -1.5625 C 5.289062 -1.71875 5.519531 -1.9375 5.6875 -2.21875 C 5.863281 -2.507812 5.953125 -2.835938 5.953125 -3.203125 L 5.953125 -7.390625 C 5.953125 -7.597656 6.007812 -7.765625 6.125 -7.890625 C 6.238281 -8.023438 6.398438 -8.09375 6.609375 -8.09375 Z M 6.609375 -8.09375 "/></g></g></g><g fill="rgb(100%, 100%, 100%)" fill-opacity="1"><g transform="translate(101.653214, 64.950686)"><g><path d="M 5.328125 -1.34375 C 5.523438 -1.34375 5.691406 -1.28125 5.828125 -1.15625 C 5.960938 -1.03125 6.03125 -0.867188 6.03125 -0.671875 C 6.03125 -0.472656 5.960938 -0.3125 5.828125 -0.1875 C 5.691406 -0.0625 5.523438 0 5.328125 0 L 1.578125 0 C 1.367188 0 1.195312 -0.0664062 1.0625 -0.203125 C 0.925781 -0.335938 0.859375 -0.503906 0.859375 -0.703125 L 0.859375 -7.375 C 0.859375 -7.570312 0.925781 -7.738281 1.0625 -7.875 C 1.207031 -8.007812 1.390625 -8.078125 1.609375 -8.078125 C 1.796875 -8.078125 1.957031 -8.007812 2.09375 -7.875 C 2.238281 -7.738281 2.3125 -7.570312 2.3125 -7.375 L 2.3125 -1.34375 Z M 5.328125 -1.34375 "/></g></g></g><g fill="rgb(100%, 100%, 100%)" fill-opacity="1"><g transform="translate(108.13627, 64.950686)"><g><path d="M 6.171875 -8.078125 C 6.378906 -8.078125 6.546875 -8.015625 6.671875 -7.890625 C 6.804688 -7.773438 6.875 -7.613281 6.875 -7.40625 C 6.875 -7.207031 6.804688 -7.046875 6.671875 -6.921875 C 6.546875 -6.804688 6.378906 -6.75 6.171875 -6.75 L 4.359375 -6.75 L 4.359375 -0.703125 C 4.359375 -0.503906 4.285156 -0.335938 4.140625 -0.203125 C 3.992188 -0.0664062 3.816406 0 3.609375 0 C 3.390625 0 3.207031 -0.0664062 3.0625 -0.203125 C 2.925781 -0.335938 2.859375 -0.503906 2.859375 -0.703125 L 2.859375 -6.75 L 1.046875 -6.75 C 0.835938 -6.75 0.664062 -6.8125 0.53125 -6.9375 C 0.40625 -7.0625 0.34375 -7.222656 0.34375 -7.421875 C 0.34375 -7.617188 0.410156 -7.773438 0.546875 -7.890625 C 0.679688 -8.015625 0.847656 -8.078125 1.046875 -8.078125 Z M 6.171875 -8.078125 "/></g></g></g><g fill="rgb(100%, 100%, 100%)" fill-opacity="1"><g transform="translate(115.357611, 64.950686)"><g><path d="M 6.609375 -8.09375 C 6.804688 -8.09375 6.96875 -8.023438 7.09375 -7.890625 C 7.21875 -7.765625 7.28125 -7.597656 7.28125 -7.390625 L 7.28125 -3.203125 C 7.28125 -2.566406 7.144531 -2.003906 6.875 -1.515625 C 6.601562 -1.023438 6.222656 -0.640625 5.734375 -0.359375 C 5.253906 -0.078125 4.703125 0.0625 4.078125 0.0625 C 3.453125 0.0625 2.894531 -0.078125 2.40625 -0.359375 C 1.914062 -0.640625 1.535156 -1.023438 1.265625 -1.515625 C 0.992188 -2.003906 0.859375 -2.566406 0.859375 -3.203125 L 0.859375 -7.390625 C 0.859375 -7.585938 0.925781 -7.753906 1.0625 -7.890625 C 1.207031 -8.023438 1.390625 -8.09375 1.609375 -8.09375 C 1.785156 -8.09375 1.941406 -8.023438 2.078125 -7.890625 C 2.222656 -7.753906 2.296875 -7.585938 2.296875 -7.390625 L 2.296875 -3.203125 C 2.296875 -2.835938 2.375 -2.507812 2.53125 -2.21875 C 2.695312 -1.9375 2.914062 -1.71875 3.1875 -1.5625 C 3.46875 -1.40625 3.765625 -1.328125 4.078125 -1.328125 C 4.410156 -1.328125 4.71875 -1.40625 5 -1.5625 C 5.289062 -1.71875 5.519531 -1.9375 5.6875 -2.21875 C 5.863281 -2.507812 5.953125 -2.835938 5.953125 -3.203125 L 5.953125 -7.390625 C 5.953125 -7.597656 6.007812 -7.765625 6.125 -7.890625 C 6.238281 -8.023438 6.398438 -8.09375 6.609375 -8.09375 Z M 6.609375 -8.09375 "/></g></g></g><g fill="rgb(100%, 100%, 100%)" fill-opacity="1"><g transform="translate(123.490277, 64.950686)"><g><path d="M 7.203125 -1.125 C 7.304688 -1.070312 7.382812 -0.992188 7.4375 -0.890625 C 7.5 -0.785156 7.53125 -0.679688 7.53125 -0.578125 C 7.53125 -0.441406 7.484375 -0.316406 7.390625 -0.203125 C 7.273438 -0.0546875 7.097656 0.015625 6.859375 0.015625 C 6.671875 0.015625 6.5 -0.0234375 6.34375 -0.109375 C 5.789062 -0.429688 5.515625 -1.078125 5.515625 -2.046875 C 5.515625 -2.316406 5.425781 -2.53125 5.25 -2.6875 C 5.070312 -2.851562 4.8125 -2.9375 4.46875 -2.9375 L 2.3125 -2.9375 L 2.3125 -0.703125 C 2.3125 -0.492188 2.253906 -0.320312 2.140625 -0.1875 C 2.023438 -0.0625 1.878906 0 1.703125 0 C 1.472656 0 1.273438 -0.0664062 1.109375 -0.203125 C 0.941406 -0.335938 0.859375 -0.503906 0.859375 -0.703125 L 0.859375 -7.375 C 0.859375 -7.570312 0.925781 -7.738281 1.0625 -7.875 C 1.195312 -8.007812 1.367188 -8.078125 1.578125 -8.078125 L 4.890625 -8.078125 C 5.296875 -8.078125 5.675781 -7.96875 6.03125 -7.75 C 6.382812 -7.539062 6.664062 -7.242188 6.875 -6.859375 C 7.082031 -6.484375 7.1875 -6.0625 7.1875 -5.59375 C 7.1875 -5.207031 7.082031 -4.832031 6.875 -4.46875 C 6.664062 -4.101562 6.398438 -3.816406 6.078125 -3.609375 C 6.554688 -3.265625 6.820312 -2.804688 6.875 -2.234375 C 6.894531 -2.117188 6.90625 -2 6.90625 -1.875 C 6.9375 -1.644531 6.96875 -1.476562 7 -1.375 C 7.03125 -1.269531 7.097656 -1.1875 7.203125 -1.125 Z M 4.84375 -4.140625 C 4.976562 -4.140625 5.109375 -4.203125 5.234375 -4.328125 C 5.367188 -4.460938 5.476562 -4.640625 5.5625 -4.859375 C 5.644531 -5.078125 5.6875 -5.3125 5.6875 -5.5625 C 5.6875 -5.78125 5.644531 -5.976562 5.5625 -6.15625 C 5.476562 -6.34375 5.367188 -6.488281 5.234375 -6.59375 C 5.109375 -6.695312 4.976562 -6.75 4.84375 -6.75 L 2.3125 -6.75 L 2.3125 -4.140625 Z M 4.84375 -4.140625 "/></g></g></g><g fill="rgb(100%, 100%, 100%)" fill-opacity="1"><g transform="translate(131.415299, 64.950686)"><g><path d="M 5.4375 -1.328125 C 5.632812 -1.328125 5.800781 -1.257812 5.9375 -1.125 C 6.070312 -0.988281 6.140625 -0.832031 6.140625 -0.65625 C 6.140625 -0.46875 6.070312 -0.3125 5.9375 -0.1875 C 5.800781 -0.0625 5.632812 0 5.4375 0 L 1.578125 0 C 1.367188 0 1.195312 -0.0664062 1.0625 -0.203125 C 0.925781 -0.335938 0.859375 -0.503906 0.859375 -0.703125 L 0.859375 -7.375 C 0.859375 -7.570312 0.925781 -7.738281 1.0625 -7.875 C 1.195312 -8.007812 1.367188 -8.078125 1.578125 -8.078125 L 5.4375 -8.078125 C 5.632812 -8.078125 5.800781 -8.015625 5.9375 -7.890625 C 6.070312 -7.765625 6.140625 -7.601562 6.140625 -7.40625 C 6.140625 -7.207031 6.070312 -7.046875 5.9375 -6.921875 C 5.8125 -6.804688 5.644531 -6.75 5.4375 -6.75 L 2.3125 -6.75 L 2.3125 -4.796875 L 4.921875 -4.796875 C 5.117188 -4.796875 5.285156 -4.726562 5.421875 -4.59375 C 5.554688 -4.46875 5.625 -4.304688 5.625 -4.109375 C 5.625 -3.921875 5.554688 -3.765625 5.421875 -3.640625 C 5.296875 -3.523438 5.128906 -3.46875 4.921875 -3.46875 L 2.3125 -3.46875 L 2.3125 -1.328125 Z M 5.4375 -1.328125 "/></g></g></g><g fill="rgb(100%, 100%, 100%)" fill-opacity="1"><g transform="translate(138.013719, 64.950686)"><g/></g></g><g fill="rgb(100%, 100%, 100%)" fill-opacity="1"><g transform="translate(141.243715, 64.950686)"><g><path d="M 6.828125 -4.359375 C 7.023438 -4.359375 7.1875 -4.289062 7.3125 -4.15625 C 7.445312 -4.019531 7.515625 -3.851562 7.515625 -3.65625 L 7.515625 -1.21875 C 7.515625 -0.945312 7.394531 -0.738281 7.15625 -0.59375 C 6.40625 -0.125 5.578125 0.109375 4.671875 0.109375 C 3.910156 0.109375 3.207031 -0.0703125 2.5625 -0.4375 C 1.914062 -0.8125 1.40625 -1.316406 1.03125 -1.953125 C 0.65625 -2.585938 0.46875 -3.285156 0.46875 -4.046875 C 0.46875 -4.796875 0.65625 -5.488281 1.03125 -6.125 C 1.40625 -6.757812 1.914062 -7.265625 2.5625 -7.640625 C 3.207031 -8.015625 3.910156 -8.203125 4.671875 -8.203125 C 5.429688 -8.203125 6.09375 -8.046875 6.65625 -7.734375 C 6.769531 -7.671875 6.859375 -7.585938 6.921875 -7.484375 C 6.984375 -7.390625 7.015625 -7.285156 7.015625 -7.171875 C 7.015625 -6.972656 6.945312 -6.800781 6.8125 -6.65625 C 6.6875 -6.519531 6.53125 -6.453125 6.34375 -6.453125 C 6.226562 -6.453125 6.101562 -6.484375 5.96875 -6.546875 C 5.550781 -6.722656 5.117188 -6.8125 4.671875 -6.8125 C 4.179688 -6.8125 3.726562 -6.6875 3.3125 -6.4375 C 2.894531 -6.1875 2.566406 -5.847656 2.328125 -5.421875 C 2.085938 -5.003906 1.96875 -4.546875 1.96875 -4.046875 C 1.96875 -3.546875 2.085938 -3.082031 2.328125 -2.65625 C 2.566406 -2.226562 2.894531 -1.890625 3.3125 -1.640625 C 3.726562 -1.390625 4.179688 -1.265625 4.671875 -1.265625 C 4.890625 -1.265625 5.117188 -1.285156 5.359375 -1.328125 C 5.609375 -1.367188 5.828125 -1.421875 6.015625 -1.484375 L 6.015625 -2.984375 L 4.9375 -2.984375 C 4.726562 -2.984375 4.554688 -3.046875 4.421875 -3.171875 C 4.285156 -3.304688 4.21875 -3.472656 4.21875 -3.671875 C 4.21875 -3.867188 4.285156 -4.03125 4.421875 -4.15625 C 4.554688 -4.289062 4.726562 -4.359375 4.9375 -4.359375 Z M 6.828125 -4.359375 "/></g></g></g><g fill="rgb(100%, 100%, 100%)" fill-opacity="1"><g transform="translate(149.272554, 64.950686)"><g><path d="M 5.4375 -1.328125 C 5.632812 -1.328125 5.800781 -1.257812 5.9375 -1.125 C 6.070312 -0.988281 6.140625 -0.832031 6.140625 -0.65625 C 6.140625 -0.46875 6.070312 -0.3125 5.9375 -0.1875 C 5.800781 -0.0625 5.632812 0 5.4375 0 L 1.578125 0 C 1.367188 0 1.195312 -0.0664062 1.0625 -0.203125 C 0.925781 -0.335938 0.859375 -0.503906 0.859375 -0.703125 L 0.859375 -7.375 C 0.859375 -7.570312 0.925781 -7.738281 1.0625 -7.875 C 1.195312 -8.007812 1.367188 -8.078125 1.578125 -8.078125 L 5.4375 -8.078125 C 5.632812 -8.078125 5.800781 -8.015625 5.9375 -7.890625 C 6.070312 -7.765625 6.140625 -7.601562 6.140625 -7.40625 C 6.140625 -7.207031 6.070312 -7.046875 5.9375 -6.921875 C 5.8125 -6.804688 5.644531 -6.75 5.4375 -6.75 L 2.3125 -6.75 L 2.3125 -4.796875 L 4.921875 -4.796875 C 5.117188 -4.796875 5.285156 -4.726562 5.421875 -4.59375 C 5.554688 -4.46875 5.625 -4.304688 5.625 -4.109375 C 5.625 -3.921875 5.554688 -3.765625 5.421875 -3.640625 C 5.296875 -3.523438 5.128906 -3.46875 4.921875 -3.46875 L 2.3125 -3.46875 L 2.3125 -1.328125 Z M 5.4375 -1.328125 "/></g></g></g><g fill="rgb(100%, 100%, 100%)" fill-opacity="1"><g transform="translate(155.870974, 64.950686)"><g><path d="M 5.4375 -1.328125 C 5.632812 -1.328125 5.800781 -1.257812 5.9375 -1.125 C 6.070312 -0.988281 6.140625 -0.832031 6.140625 -0.65625 C 6.140625 -0.46875 6.070312 -0.3125 5.9375 -0.1875 C 5.800781 -0.0625 5.632812 0 5.4375 0 L 1.578125 0 C 1.367188 0 1.195312 -0.0664062 1.0625 -0.203125 C 0.925781 -0.335938 0.859375 -0.503906 0.859375 -0.703125 L 0.859375 -7.375 C 0.859375 -7.570312 0.925781 -7.738281 1.0625 -7.875 C 1.195312 -8.007812 1.367188 -8.078125 1.578125 -8.078125 L 5.4375 -8.078125 C 5.632812 -8.078125 5.800781 -8.015625 5.9375 -7.890625 C 6.070312 -7.765625 6.140625 -7.601562 6.140625 -7.40625 C 6.140625 -7.207031 6.070312 -7.046875 5.9375 -6.921875 C 5.8125 -6.804688 5.644531 -6.75 5.4375 -6.75 L 2.3125 -6.75 L 2.3125 -4.796875 L 4.921875 -4.796875 C 5.117188 -4.796875 5.285156 -4.726562 5.421875 -4.59375 C 5.554688 -4.46875 5.625 -4.304688 5.625 -4.109375 C 5.625 -3.921875 5.554688 -3.765625 5.421875 -3.640625 C 5.296875 -3.523438 5.128906 -3.46875 4.921875 -3.46875 L 2.3125 -3.46875 L 2.3125 -1.328125 Z M 5.4375 -1.328125 "/></g></g></g><g fill="rgb(100%, 100%, 100%)" fill-opacity="1"><g transform="translate(162.469394, 64.950686)"><g><path d="M 7.0625 -1.203125 C 7.101562 -1.140625 7.140625 -1.0625 7.171875 -0.96875 C 7.203125 -0.882812 7.21875 -0.804688 7.21875 -0.734375 C 7.21875 -0.523438 7.140625 -0.347656 6.984375 -0.203125 C 6.828125 -0.0664062 6.644531 0 6.4375 0 C 6.332031 0 6.234375 -0.0195312 6.140625 -0.0625 C 6.046875 -0.113281 5.96875 -0.179688 5.90625 -0.265625 L 3.40625 -3.5625 L 2.3125 -2.515625 L 2.3125 -0.703125 C 2.3125 -0.492188 2.242188 -0.320312 2.109375 -0.1875 C 1.972656 -0.0625 1.796875 0 1.578125 0 C 1.367188 0 1.195312 -0.0664062 1.0625 -0.203125 C 0.925781 -0.335938 0.859375 -0.503906 0.859375 -0.703125 L 0.859375 -7.375 C 0.859375 -7.570312 0.925781 -7.738281 1.0625 -7.875 C 1.207031 -8.007812 1.390625 -8.078125 1.609375 -8.078125 C 1.816406 -8.078125 1.984375 -8.007812 2.109375 -7.875 C 2.242188 -7.75 2.3125 -7.582031 2.3125 -7.375 L 2.3125 -4.234375 L 6 -7.875 C 6.175781 -8.050781 6.363281 -8.140625 6.5625 -8.140625 C 6.738281 -8.140625 6.890625 -8.066406 7.015625 -7.921875 C 7.140625 -7.773438 7.203125 -7.617188 7.203125 -7.453125 C 7.203125 -7.296875 7.132812 -7.148438 7 -7.015625 L 4.484375 -4.609375 Z M 7.0625 -1.203125 "/></g></g></g></svg>