<svg xmlns="http://www.w3.org/2000/svg" xmlns:xlink="http://www.w3.org/1999/xlink" width="300" zoomAndPan="magnify" viewBox="0 0 300 149.999998" height="149.999998" preserveAspectRatio="xMidYMid meet" version="1.0"><defs><g><g id="id1"/><g id="id2"/></g><clipPath id="id3"><path d="M 14.511719 50 L 128.511719 50 L 128.511719 93 L 14.511719 93 Z M 14.511719 50 " clip-rule="nonzero"/></clipPath><clipPath id="id4"><path d="M 88 20.511719 L 99 20.511719 L 99 31 L 88 31 Z M 88 20.511719 " clip-rule="nonzero"/></clipPath></defs><g clip-path="url(#id3)"><path fill="rgb(100%, 100%, 100%)" d="M 128.515625 71.304688 C 128.515625 77.140625 122.378906 82.476562 111.230469 86.335938 C 100.597656 90.011719 86.492188 92.039062 71.511719 92.039062 C 56.535156 92.039062 42.429688 90.011719 31.796875 86.335938 C 20.648438 82.476562 14.511719 77.140625 14.511719 71.304688 C 14.511719 65.46875 20.648438 60.132812 31.796875 56.273438 C 42.429688 52.59375 56.535156 50.570312 71.511719 50.570312 C 86.492188 50.570312 100.597656 52.59375 111.230469 56.273438 C 122.378906 60.132812 128.515625 65.46875 128.515625 71.304688 Z M 17.617188 71.304688 C 17.617188 79.820312 39.273438 88.941406 71.511719 88.941406 C 103.753906 88.941406 125.40625 79.820312 125.40625 71.304688 C 125.40625 62.789062 103.753906 53.667969 71.511719 53.667969 C 39.273438 53.667969 17.617188 62.785156 17.617188 71.304688 Z M 17.617188 71.304688 " fill-opacity="1" fill-rule="nonzero"/></g><path fill="rgb(100%, 100%, 100%)" d="M 108.007812 107.164062 C 108.007812 112.488281 106.4375 116.359375 103.46875 118.363281 C 98.621094 121.636719 90.746094 119.558594 81.296875 112.519531 C 72.277344 105.804688 62.6875 95.296875 54.289062 82.929688 C 42.402344 65.421875 35.019531 47.226562 35.019531 35.441406 C 35.019531 30.121094 36.589844 26.246094 39.558594 24.246094 C 44.402344 20.972656 52.277344 23.046875 61.730469 30.089844 C 70.746094 36.804688 80.339844 47.3125 88.734375 59.679688 C 100.621094 77.183594 108.007812 95.378906 108.007812 107.164062 Z M 38.128906 35.441406 C 38.128906 46.640625 45.308594 64.171875 56.863281 81.191406 C 74.9375 107.804688 94.652344 120.574219 101.726562 115.796875 C 104.347656 114.03125 104.898438 110.128906 104.898438 107.164062 C 104.898438 95.964844 97.71875 78.4375 86.160156 61.417969 C 77.953125 49.328125 68.617188 39.085938 59.871094 32.570312 C 51.679688 26.472656 44.914062 24.371094 41.300781 26.8125 C 38.679688 28.578125 38.128906 32.480469 38.128906 35.441406 Z M 38.128906 35.441406 " fill-opacity="1" fill-rule="nonzero"/><path fill="rgb(100%, 100%, 100%)" d="M 107.996094 35.488281 C 107.996094 38.773438 107.421875 42.617188 106.265625 46.941406 C 103.359375 57.78125 97.132812 70.5625 88.738281 82.929688 C 84.761719 88.78125 80.511719 94.234375 76.101562 99.136719 C 75.527344 99.773438 74.542969 99.828125 73.90625 99.253906 C 73.265625 98.683594 73.214844 97.703125 73.785156 97.066406 C 78.101562 92.269531 82.265625 86.929688 86.164062 81.191406 C 94.371094 69.101562 100.445312 56.65625 103.261719 46.140625 C 105.898438 36.296875 105.339844 29.25 101.726562 26.8125 C 98.113281 24.371094 91.347656 26.472656 83.15625 32.570312 C 74.410156 39.085938 65.074219 49.328125 56.867188 61.417969 C 38.792969 88.03125 34.226562 111.023438 41.300781 115.796875 C 44.476562 117.941406 50.058594 116.609375 57.015625 112.042969 C 57.730469 111.570312 58.695312 111.769531 59.167969 112.484375 C 59.640625 113.199219 59.441406 114.160156 58.722656 114.628906 C 50.53125 120.007812 43.90625 121.296875 39.558594 118.367188 C 34.710938 115.09375 33.71875 107.03125 36.765625 95.667969 C 39.667969 84.828125 45.894531 72.046875 54.292969 59.679688 C 62.691406 47.3125 72.28125 36.804688 81.296875 30.089844 C 90.75 23.050781 98.625 20.972656 103.472656 24.246094 C 106.472656 26.273438 107.996094 30.136719 107.996094 35.488281 Z M 107.996094 35.488281 " fill-opacity="1" fill-rule="nonzero"/><path fill="rgb(78.039551%, 30.198669%, 20.779419%)" d="M 71.511719 57.847656 C 72.398438 57.847656 73.277344 57.933594 74.144531 58.109375 C 75.015625 58.28125 75.859375 58.535156 76.679688 58.875 C 77.496094 59.210938 78.273438 59.625 79.011719 60.117188 C 79.746094 60.609375 80.429688 61.164062 81.054688 61.789062 C 81.683594 62.414062 82.242188 63.09375 82.734375 63.828125 C 83.226562 64.5625 83.640625 65.339844 83.980469 66.15625 C 84.320312 66.972656 84.578125 67.8125 84.75 68.679688 C 84.921875 69.546875 85.007812 70.421875 85.007812 71.304688 C 85.007812 72.1875 84.921875 73.0625 84.75 73.929688 C 84.578125 74.796875 84.320312 75.636719 83.980469 76.453125 C 83.640625 77.269531 83.226562 78.042969 82.734375 78.777344 C 82.242188 79.511719 81.683594 80.191406 81.054688 80.816406 C 80.429688 81.441406 79.746094 82 79.011719 82.492188 C 78.273438 82.980469 77.496094 83.394531 76.679688 83.734375 C 75.859375 84.070312 75.015625 84.328125 74.144531 84.5 C 73.277344 84.671875 72.398438 84.757812 71.511719 84.757812 C 70.628906 84.757812 69.75 84.671875 68.878906 84.5 C 68.011719 84.328125 67.167969 84.070312 66.347656 83.734375 C 65.53125 83.394531 64.753906 82.980469 64.015625 82.492188 C 63.277344 82 62.597656 81.441406 61.972656 80.816406 C 61.34375 80.191406 60.785156 79.511719 60.292969 78.777344 C 59.800781 78.042969 59.382812 77.269531 59.046875 76.453125 C 58.707031 75.636719 58.449219 74.796875 58.277344 73.929688 C 58.105469 73.0625 58.019531 72.1875 58.019531 71.304688 C 58.019531 70.421875 58.105469 69.546875 58.277344 68.679688 C 58.449219 67.8125 58.707031 66.972656 59.046875 66.15625 C 59.382812 65.339844 59.800781 64.5625 60.292969 63.828125 C 60.785156 63.09375 61.34375 62.414062 61.972656 61.789062 C 62.597656 61.164062 63.277344 60.609375 64.015625 60.117188 C 64.753906 59.625 65.53125 59.210938 66.347656 58.875 C 67.167969 58.535156 68.011719 58.28125 68.878906 58.109375 C 69.75 57.933594 70.628906 57.847656 71.511719 57.847656 Z M 71.511719 57.847656 " fill-opacity="1" fill-rule="nonzero"/><path fill="rgb(78.039551%, 30.198669%, 20.779419%)" d="M 24.167969 76.75 C 24.488281 76.75 24.808594 76.78125 25.125 76.84375 C 25.441406 76.90625 25.746094 77 26.042969 77.121094 C 26.34375 77.242188 26.625 77.394531 26.894531 77.574219 C 27.160156 77.75 27.410156 77.953125 27.636719 78.183594 C 27.863281 78.410156 28.066406 78.65625 28.246094 78.921875 C 28.425781 79.191406 28.578125 79.472656 28.699219 79.769531 C 28.824219 80.066406 28.917969 80.371094 28.980469 80.6875 C 29.042969 81.003906 29.074219 81.320312 29.074219 81.640625 C 29.074219 81.964844 29.042969 82.28125 28.980469 82.597656 C 28.917969 82.910156 28.824219 83.21875 28.699219 83.515625 C 28.578125 83.8125 28.425781 84.09375 28.246094 84.359375 C 28.066406 84.628906 27.863281 84.875 27.636719 85.101562 C 27.410156 85.328125 27.160156 85.53125 26.894531 85.710938 C 26.625 85.890625 26.34375 86.039062 26.042969 86.164062 C 25.746094 86.285156 25.441406 86.378906 25.125 86.441406 C 24.808594 86.503906 24.488281 86.535156 24.167969 86.535156 C 23.84375 86.535156 23.523438 86.503906 23.207031 86.441406 C 22.890625 86.378906 22.585938 86.285156 22.289062 86.164062 C 21.988281 86.039062 21.707031 85.890625 21.4375 85.710938 C 21.171875 85.53125 20.921875 85.328125 20.695312 85.101562 C 20.46875 84.875 20.265625 84.628906 20.085938 84.359375 C 19.90625 84.09375 19.753906 83.8125 19.632812 83.515625 C 19.507812 83.21875 19.414062 82.910156 19.351562 82.597656 C 19.289062 82.28125 19.257812 81.964844 19.257812 81.640625 C 19.257812 81.320312 19.289062 81.003906 19.351562 80.6875 C 19.414062 80.371094 19.507812 80.066406 19.632812 79.769531 C 19.753906 79.472656 19.90625 79.191406 20.085938 78.921875 C 20.265625 78.65625 20.46875 78.410156 20.695312 78.183594 C 20.921875 77.953125 21.171875 77.75 21.4375 77.574219 C 21.707031 77.394531 21.988281 77.242188 22.289062 77.121094 C 22.585938 77 22.890625 76.90625 23.207031 76.84375 C 23.523438 76.78125 23.84375 76.75 24.167969 76.75 Z M 24.167969 76.75 " fill-opacity="1" fill-rule="nonzero"/><g clip-path="url(#id4)"><path fill="rgb(78.039551%, 30.198669%, 20.779419%)" d="M 93.191406 20.601562 C 93.511719 20.601562 93.832031 20.632812 94.148438 20.695312 C 94.464844 20.757812 94.769531 20.851562 95.070312 20.972656 C 95.367188 21.097656 95.648438 21.246094 95.917969 21.425781 C 96.183594 21.605469 96.433594 21.804688 96.660156 22.035156 C 96.890625 22.261719 97.09375 22.507812 97.273438 22.773438 C 97.449219 23.042969 97.601562 23.324219 97.726562 23.621094 C 97.847656 23.917969 97.941406 24.222656 98.003906 24.539062 C 98.066406 24.855469 98.097656 25.171875 98.097656 25.492188 C 98.097656 25.816406 98.066406 26.132812 98.003906 26.449219 C 97.941406 26.761719 97.847656 27.070312 97.726562 27.367188 C 97.601562 27.664062 97.449219 27.945312 97.273438 28.210938 C 97.09375 28.480469 96.890625 28.726562 96.660156 28.953125 C 96.433594 29.179688 96.183594 29.382812 95.917969 29.5625 C 95.648438 29.742188 95.367188 29.890625 95.070312 30.015625 C 94.769531 30.136719 94.464844 30.230469 94.148438 30.292969 C 93.832031 30.355469 93.511719 30.386719 93.191406 30.386719 C 92.867188 30.386719 92.550781 30.355469 92.234375 30.292969 C 91.917969 30.230469 91.609375 30.136719 91.3125 30.015625 C 91.015625 29.890625 90.730469 29.742188 90.464844 29.5625 C 90.195312 29.382812 89.949219 29.179688 89.71875 28.953125 C 89.492188 28.726562 89.289062 28.480469 89.109375 28.210938 C 88.929688 27.945312 88.78125 27.664062 88.65625 27.367188 C 88.53125 27.070312 88.441406 26.761719 88.375 26.449219 C 88.3125 26.132812 88.28125 25.816406 88.28125 25.492188 C 88.28125 25.171875 88.3125 24.855469 88.375 24.539062 C 88.441406 24.222656 88.53125 23.917969 88.65625 23.621094 C 88.78125 23.324219 88.929688 23.042969 89.109375 22.773438 C 89.289062 22.507812 89.492188 22.261719 89.71875 22.035156 C 89.949219 21.804688 90.195312 21.605469 90.464844 21.425781 C 90.730469 21.246094 91.015625 21.097656 91.3125 20.972656 C 91.609375 20.851562 91.917969 20.757812 92.234375 20.695312 C 92.550781 20.632812 92.867188 20.601562 93.191406 20.601562 Z M 93.191406 20.601562 " fill-opacity="1" fill-rule="nonzero"/></g><path fill="rgb(78.039551%, 30.198669%, 20.779419%)" d="M 105.367188 102.113281 C 105.691406 102.113281 106.007812 102.144531 106.324219 102.207031 C 106.640625 102.269531 106.949219 102.363281 107.246094 102.484375 C 107.542969 102.609375 107.824219 102.757812 108.09375 102.9375 C 108.363281 103.117188 108.609375 103.320312 108.835938 103.546875 C 109.066406 103.773438 109.269531 104.019531 109.449219 104.289062 C 109.628906 104.554688 109.777344 104.835938 109.902344 105.132812 C 110.023438 105.429688 110.117188 105.734375 110.179688 106.050781 C 110.242188 106.367188 110.273438 106.683594 110.273438 107.003906 C 110.273438 107.328125 110.242188 107.644531 110.179688 107.960938 C 110.117188 108.277344 110.023438 108.582031 109.902344 108.878906 C 109.777344 109.175781 109.628906 109.457031 109.449219 109.722656 C 109.269531 109.992188 109.066406 110.238281 108.835938 110.464844 C 108.609375 110.691406 108.363281 110.894531 108.09375 111.074219 C 107.824219 111.253906 107.542969 111.402344 107.246094 111.527344 C 106.949219 111.648438 106.640625 111.742188 106.324219 111.804688 C 106.007812 111.867188 105.691406 111.898438 105.367188 111.898438 C 105.046875 111.898438 104.726562 111.867188 104.410156 111.804688 C 104.09375 111.742188 103.785156 111.648438 103.488281 111.527344 C 103.191406 111.402344 102.910156 111.253906 102.640625 111.074219 C 102.371094 110.894531 102.125 110.691406 101.898438 110.464844 C 101.667969 110.238281 101.464844 109.992188 101.285156 109.722656 C 101.105469 109.457031 100.957031 109.175781 100.832031 108.878906 C 100.710938 108.582031 100.617188 108.277344 100.554688 107.960938 C 100.492188 107.644531 100.460938 107.328125 100.460938 107.003906 C 100.460938 106.683594 100.492188 106.367188 100.554688 106.050781 C 100.617188 105.734375 100.710938 105.429688 100.832031 105.132812 C 100.957031 104.835938 101.105469 104.554688 101.285156 104.289062 C 101.464844 104.019531 101.667969 103.773438 101.898438 103.546875 C 102.125 103.320312 102.371094 103.117188 102.640625 102.9375 C 102.910156 102.757812 103.191406 102.609375 103.488281 102.484375 C 103.785156 102.363281 104.09375 102.269531 104.410156 102.207031 C 104.726562 102.144531 105.046875 102.113281 105.367188 102.113281 Z M 105.367188 102.113281 " fill-opacity="1" fill-rule="nonzero"/><g fill="rgb(100%, 100%, 100%)" fill-opacity="1"><g transform="translate(132.972651, 88.404202)"><g><path d="M 20.703125 -48.546875 C 24.410156 -48.546875 27.679688 -47.78125 30.515625 -46.25 C 33.347656 -44.71875 35.539062 -42.566406 37.09375 -39.796875 C 38.65625 -37.035156 39.4375 -33.828125 39.4375 -30.171875 L 39.4375 -16.796875 C 39.4375 -12.773438 38.394531 -9.332031 36.3125 -6.46875 C 34.226562 -3.613281 31.359375 -1.617188 27.703125 -0.484375 C 27.378906 -0.429688 27.21875 -0.222656 27.21875 0.140625 L 27.21875 4.65625 C 27.21875 5.53125 26.785156 5.96875 25.921875 5.96875 L 15.640625 5.96875 C 14.765625 5.96875 14.328125 5.53125 14.328125 4.65625 L 14.328125 0.203125 C 14.328125 -0.160156 14.171875 -0.363281 13.859375 -0.40625 C 10.191406 -1.59375 7.304688 -3.613281 5.203125 -6.46875 C 3.109375 -9.332031 2.0625 -12.773438 2.0625 -16.796875 L 2.0625 -30.171875 C 2.0625 -33.828125 2.835938 -37.035156 4.390625 -39.796875 C 5.941406 -42.566406 8.125 -44.71875 10.9375 -46.25 C 13.75 -47.78125 17.003906 -48.546875 20.703125 -48.546875 Z M 14.953125 -17.140625 C 14.953125 -15.179688 15.476562 -13.582031 16.53125 -12.34375 C 17.582031 -11.113281 18.972656 -10.5 20.703125 -10.5 C 22.441406 -10.5 23.847656 -11.101562 24.921875 -12.3125 C 26.003906 -13.519531 26.546875 -15.128906 26.546875 -17.140625 L 26.546875 -30.859375 C 26.546875 -32.867188 26.003906 -34.476562 24.921875 -35.6875 C 23.847656 -36.90625 22.441406 -37.515625 20.703125 -37.515625 C 18.972656 -37.515625 17.582031 -36.894531 16.53125 -35.65625 C 15.476562 -34.425781 14.953125 -32.828125 14.953125 -30.859375 Z M 14.953125 -17.140625 "/></g></g></g><g fill="rgb(100%, 100%, 100%)" fill-opacity="1"><g transform="translate(174.455307, 88.404202)"><g><path d="M 21.1875 0.546875 C 17.488281 0.546875 14.207031 -0.160156 11.34375 -1.578125 C 8.488281 -2.992188 6.285156 -5.003906 4.734375 -7.609375 C 3.179688 -10.210938 2.40625 -13.234375 2.40625 -16.671875 L 2.40625 -46.703125 C 2.40625 -47.566406 2.835938 -48 3.703125 -48 L 13.984375 -48 C 14.859375 -48 15.296875 -47.566406 15.296875 -46.703125 L 15.296875 -16.671875 C 15.296875 -14.796875 15.832031 -13.296875 16.90625 -12.171875 C 17.976562 -11.054688 19.40625 -10.5 21.1875 -10.5 C 22.925781 -10.5 24.332031 -11.066406 25.40625 -12.203125 C 26.476562 -13.347656 27.015625 -14.835938 27.015625 -16.671875 L 27.015625 -46.703125 C 27.015625 -47.566406 27.453125 -48 28.328125 -48 L 38.609375 -48 C 39.472656 -48 39.90625 -47.566406 39.90625 -46.703125 L 39.90625 -16.671875 C 39.90625 -13.234375 39.128906 -10.210938 37.578125 -7.609375 C 36.023438 -5.003906 33.832031 -2.992188 31 -1.578125 C 28.164062 -0.160156 24.894531 0.546875 21.1875 0.546875 Z M 21.1875 0.546875 "/></g></g></g><g fill="rgb(100%, 100%, 100%)" fill-opacity="1"><g transform="translate(216.760758, 88.404202)"><g><path d="M 3.984375 0 C 3.109375 0 2.671875 -0.429688 2.671875 -1.296875 L 2.671875 -46.703125 C 2.671875 -47.566406 3.109375 -48 3.984375 -48 L 14.265625 -48 C 15.128906 -48 15.5625 -47.566406 15.5625 -46.703125 L 15.5625 -1.296875 C 15.5625 -0.429688 15.128906 0 14.265625 0 Z M 3.984375 0 "/></g></g></g><g fill="rgb(100%, 100%, 100%)" fill-opacity="1"><g transform="translate(234.999413, 88.404202)"><g><path d="M 2.953125 0 C 2.078125 0 1.640625 -0.429688 1.640625 -1.296875 L 1.640625 -10.765625 C 1.640625 -11.316406 1.820312 -11.84375 2.1875 -12.34375 L 21.875 -36.28125 C 21.96875 -36.457031 22.015625 -36.570312 22.015625 -36.625 C 22.015625 -36.851562 21.851562 -36.96875 21.53125 -36.96875 L 2.953125 -36.96875 C 2.078125 -36.96875 1.640625 -37.398438 1.640625 -38.265625 L 1.640625 -46.703125 C 1.640625 -47.566406 2.078125 -48 2.953125 -48 L 35.390625 -48 C 36.253906 -48 36.6875 -47.566406 36.6875 -46.703125 L 36.6875 -37.234375 C 36.6875 -36.691406 36.503906 -36.164062 36.140625 -35.65625 L 16.328125 -11.734375 C 16.234375 -11.546875 16.1875 -11.429688 16.1875 -11.390625 C 16.1875 -11.160156 16.347656 -11.046875 16.671875 -11.046875 L 35.390625 -11.046875 C 36.253906 -11.046875 36.6875 -10.609375 36.6875 -9.734375 L 36.6875 -1.296875 C 36.6875 -0.429688 36.253906 0 35.390625 0 Z M 2.953125 0 "/></g></g></g><g fill="rgb(25.489807%, 26.669312%, 27.839661%)" fill-opacity="1"><g transform="translate(138.351329, 106.032483)"><g><path d="M 8.40625 0 C 9.15625 0 9.796875 -0.265625 10.328125 -0.796875 C 10.867188 -1.328125 11.140625 -1.972656 11.140625 -2.734375 L 9.765625 -2.734375 C 9.765625 -2.347656 9.628906 -2.019531 9.359375 -1.75 C 9.097656 -1.488281 8.78125 -1.359375 8.40625 -1.359375 L 3.625 -1.359375 C 3.25 -1.359375 2.925781 -1.488281 2.65625 -1.75 C 2.394531 -2.019531 2.265625 -2.347656 2.265625 -2.734375 L 2.265625 -5.859375 C 2.265625 -6.234375 2.394531 -6.554688 2.65625 -6.828125 C 2.925781 -7.097656 3.25 -7.234375 3.625 -7.234375 L 8.40625 -7.234375 C 8.78125 -7.234375 9.097656 -7.097656 9.359375 -6.828125 C 9.628906 -6.554688 9.765625 -6.234375 9.765625 -5.859375 L 11.140625 -5.859375 C 11.140625 -6.609375 10.867188 -7.25 10.328125 -7.78125 C 9.796875 -8.320312 9.15625 -8.59375 8.40625 -8.59375 L 3.625 -8.59375 C 2.875 -8.59375 2.226562 -8.320312 1.6875 -7.78125 C 1.15625 -7.25 0.890625 -6.609375 0.890625 -5.859375 L 0.890625 -2.734375 C 0.890625 -1.972656 1.15625 -1.328125 1.6875 -0.796875 C 2.226562 -0.265625 2.875 0 3.625 0 Z M 8.40625 0 "/></g></g></g><g fill="rgb(25.489807%, 26.669312%, 27.839661%)" fill-opacity="1"><g transform="translate(150.387217, 106.032483)"><g><path d="M 8.40625 0 C 9.15625 0 9.796875 -0.265625 10.328125 -0.796875 C 10.867188 -1.328125 11.140625 -1.972656 11.140625 -2.734375 L 11.140625 -8.59375 L 9.765625 -8.59375 L 9.765625 -2.734375 C 9.765625 -2.347656 9.628906 -2.019531 9.359375 -1.75 C 9.097656 -1.488281 8.78125 -1.359375 8.40625 -1.359375 L 3.625 -1.359375 C 3.25 -1.359375 2.925781 -1.488281 2.65625 -1.75 C 2.394531 -2.019531 2.265625 -2.347656 2.265625 -2.734375 L 2.265625 -8.59375 L 0.890625 -8.59375 L 0.890625 -2.734375 C 0.890625 -1.972656 1.15625 -1.328125 1.6875 -0.796875 C 2.226562 -0.265625 2.875 0 3.625 0 Z M 8.40625 0 "/></g></g></g><g fill="rgb(25.489807%, 26.669312%, 27.839661%)" fill-opacity="1"><g transform="translate(162.423105, 106.032483)"><g><path d="M 9.0625 0 L 9.0625 -1.359375 L 2.5625 -1.359375 L 2.5625 -8.59375 L 1.203125 -8.59375 L 1.203125 0 Z M 9.0625 0 "/></g></g></g><g fill="rgb(25.489807%, 26.669312%, 27.839661%)" fill-opacity="1"><g transform="translate(171.906835, 106.032483)"><g><path d="M 5.4375 0 L 4.0625 0 L 4.0625 -7.234375 L 0.171875 -7.234375 L 0.171875 -8.59375 L 9.328125 -8.59375 L 9.328125 -7.234375 L 5.4375 -7.234375 Z M 5.4375 0 "/></g></g></g><g fill="rgb(25.489807%, 26.669312%, 27.839661%)" fill-opacity="1"><g transform="translate(181.414528, 106.032483)"><g><path d="M 8.40625 0 C 9.15625 0 9.796875 -0.265625 10.328125 -0.796875 C 10.867188 -1.328125 11.140625 -1.972656 11.140625 -2.734375 L 11.140625 -8.59375 L 9.765625 -8.59375 L 9.765625 -2.734375 C 9.765625 -2.347656 9.628906 -2.019531 9.359375 -1.75 C 9.097656 -1.488281 8.78125 -1.359375 8.40625 -1.359375 L 3.625 -1.359375 C 3.25 -1.359375 2.925781 -1.488281 2.65625 -1.75 C 2.394531 -2.019531 2.265625 -2.347656 2.265625 -2.734375 L 2.265625 -8.59375 L 0.890625 -8.59375 L 0.890625 -2.734375 C 0.890625 -1.972656 1.15625 -1.328125 1.6875 -0.796875 C 2.226562 -0.265625 2.875 0 3.625 0 Z M 8.40625 0 "/></g></g></g><g fill="rgb(25.489807%, 26.669312%, 27.839661%)" fill-opacity="1"><g transform="translate(193.450416, 106.032483)"><g><path d="M 11.4375 0 L 10.0625 0 L 10.0625 -2.421875 C 10.0625 -2.609375 9.992188 -2.769531 9.859375 -2.90625 C 9.734375 -3.039062 9.578125 -3.109375 9.390625 -3.109375 L 2.5625 -3.109375 L 2.5625 0 L 1.203125 0 L 1.203125 -8.59375 L 9.390625 -8.59375 C 9.953125 -8.59375 10.429688 -8.390625 10.828125 -7.984375 C 11.234375 -7.585938 11.4375 -7.109375 11.4375 -6.546875 L 11.4375 -5.15625 C 11.4375 -4.625 11.257812 -4.164062 10.90625 -3.78125 C 11.257812 -3.394531 11.4375 -2.941406 11.4375 -2.421875 Z M 9.390625 -4.46875 C 9.578125 -4.46875 9.734375 -4.535156 9.859375 -4.671875 C 9.992188 -4.804688 10.0625 -4.96875 10.0625 -5.15625 L 10.0625 -6.546875 C 10.0625 -6.734375 9.992188 -6.894531 9.859375 -7.03125 C 9.734375 -7.164062 9.578125 -7.234375 9.390625 -7.234375 L 2.5625 -7.234375 L 2.5625 -4.46875 Z M 9.390625 -4.46875 "/></g></g></g><g fill="rgb(25.489807%, 26.669312%, 27.839661%)" fill-opacity="1"><g transform="translate(205.785854, 106.032483)"><g><path d="M 10.75 0 L 1.203125 0 L 1.203125 -8.59375 L 10.75 -8.59375 L 10.75 -7.234375 L 2.5625 -7.234375 L 2.5625 -4.984375 L 9.78125 -4.984375 L 9.78125 -3.609375 L 2.5625 -3.609375 L 2.5625 -1.359375 L 10.75 -1.359375 Z M 10.75 0 "/></g></g></g><g fill="rgb(25.489807%, 26.669312%, 27.839661%)" fill-opacity="1"><g transform="translate(217.438319, 106.032483)"><g/></g></g><g fill="rgb(25.489807%, 26.669312%, 27.839661%)" fill-opacity="1"><g transform="translate(220.481737, 106.032483)"><g><path d="M 8.40625 0 C 9.132812 0 9.773438 -0.265625 10.328125 -0.796875 C 10.859375 -1.335938 11.128906 -1.984375 11.140625 -2.734375 L 11.140625 -3.609375 C 11.140625 -3.878906 11.039062 -4.109375 10.84375 -4.296875 C 10.65625 -4.492188 10.425781 -4.59375 10.15625 -4.59375 L 6.015625 -4.59375 L 6.015625 -3.21875 L 9.765625 -3.21875 L 9.765625 -2.734375 C 9.765625 -2.367188 9.628906 -2.046875 9.359375 -1.765625 C 9.085938 -1.492188 8.769531 -1.359375 8.40625 -1.359375 L 3.625 -1.359375 C 3.25 -1.359375 2.925781 -1.488281 2.65625 -1.75 C 2.394531 -2.019531 2.265625 -2.347656 2.265625 -2.734375 L 2.265625 -5.859375 C 2.265625 -6.234375 2.394531 -6.554688 2.65625 -6.828125 C 2.925781 -7.097656 3.25 -7.234375 3.625 -7.234375 L 8.40625 -7.234375 C 8.78125 -7.234375 9.097656 -7.097656 9.359375 -6.828125 C 9.628906 -6.554688 9.765625 -6.234375 9.765625 -5.859375 L 11.140625 -5.859375 C 11.140625 -6.609375 10.867188 -7.25 10.328125 -7.78125 C 9.796875 -8.320312 9.15625 -8.59375 8.40625 -8.59375 L 3.625 -8.59375 C 2.875 -8.59375 2.226562 -8.320312 1.6875 -7.78125 C 1.15625 -7.25 0.890625 -6.609375 0.890625 -5.859375 L 0.890625 -2.734375 C 0.890625 -1.972656 1.15625 -1.328125 1.6875 -0.796875 C 2.226562 -0.265625 2.875 0 3.625 0 Z M 8.40625 0 "/></g></g></g><g fill="rgb(25.489807%, 26.669312%, 27.839661%)" fill-opacity="1"><g transform="translate(232.517625, 106.032483)"><g><path d="M 10.75 0 L 1.203125 0 L 1.203125 -8.59375 L 10.75 -8.59375 L 10.75 -7.234375 L 2.5625 -7.234375 L 2.5625 -4.984375 L 9.78125 -4.984375 L 9.78125 -3.609375 L 2.5625 -3.609375 L 2.5625 -1.359375 L 10.75 -1.359375 Z M 10.75 0 "/></g></g></g><g fill="rgb(25.489807%, 26.669312%, 27.839661%)" fill-opacity="1"><g transform="translate(244.17009, 106.032483)"><g><path d="M 10.75 0 L 1.203125 0 L 1.203125 -8.59375 L 10.75 -8.59375 L 10.75 -7.234375 L 2.5625 -7.234375 L 2.5625 -4.984375 L 9.78125 -4.984375 L 9.78125 -3.609375 L 2.5625 -3.609375 L 2.5625 -1.359375 L 10.75 -1.359375 Z M 10.75 0 "/></g></g></g><g fill="rgb(25.489807%, 26.669312%, 27.839661%)" fill-opacity="1"><g transform="translate(255.822556, 106.032483)"><g><path d="M 11.4375 0 L 10.0625 0 L 10.0625 -2.515625 C 10.0625 -2.804688 9.957031 -3.054688 9.75 -3.265625 C 9.539062 -3.484375 9.285156 -3.601562 8.984375 -3.625 L 8.953125 -3.609375 L 2.5625 -3.609375 L 2.5625 0 L 1.203125 0 L 1.203125 -8.59375 L 2.5625 -8.59375 L 2.5625 -4.984375 L 8.984375 -4.984375 C 9.285156 -4.992188 9.539062 -5.101562 9.75 -5.3125 C 9.957031 -5.53125 10.0625 -5.785156 10.0625 -6.078125 L 10.0625 -8.59375 L 11.4375 -8.59375 L 11.4375 -6.078125 C 11.4375 -5.378906 11.179688 -4.785156 10.671875 -4.296875 C 11.179688 -3.804688 11.4375 -3.210938 11.4375 -2.515625 Z M 11.4375 0 "/></g></g></g></svg>