<svg xmlns="http://www.w3.org/2000/svg" xmlns:xlink="http://www.w3.org/1999/xlink" width="150" zoomAndPan="magnify" viewBox="0 0 112.5 112.499997" height="150" preserveAspectRatio="xMidYMid meet" version="1.0"><defs><clipPath id="id1"><path d="M 5.625 5.625 L 106.875 5.625 L 106.875 106.875 L 5.625 106.875 Z M 5.625 5.625 " clip-rule="nonzero"/></clipPath></defs><g clip-path="url(#id1)"><path fill="rgb(78.039551%, 30.198669%, 20.779419%)" d="M 106.882812 56.25 C 106.882812 28.285156 84.214844 5.621094 56.253906 5.621094 C 28.292969 5.621094 5.625 28.285156 5.625 56.25 C 5.625 84.207031 28.292969 106.875 56.253906 106.875 C 84.214844 106.875 106.882812 84.207031 106.882812 56.25 Z M 106.882812 56.25 " fill-opacity="1" fill-rule="nonzero"/></g><path fill="rgb(100%, 100%, 100%)" d="M 62.164062 56.25 L 76.964844 39.066406 C 78.582031 37.191406 78.367188 34.363281 76.496094 32.746094 C 74.621094 31.136719 71.792969 31.34375 70.179688 33.21875 L 56.253906 49.382812 L 42.328125 33.21875 C 40.714844 31.34375 37.886719 31.132812 36.011719 32.746094 C 34.136719 34.363281 33.925781 37.191406 35.542969 39.066406 L 50.339844 56.25 L 35.542969 73.429688 C 33.925781 75.304688 34.136719 78.132812 36.011719 79.746094 C 36.855469 80.476562 37.898438 80.832031 38.933594 80.832031 C 40.191406 80.832031 41.441406 80.304688 42.328125 79.277344 L 56.253906 63.109375 L 70.179688 79.277344 C 71.0625 80.304688 72.316406 80.832031 73.574219 80.832031 C 74.609375 80.832031 75.648438 80.476562 76.496094 79.746094 C 78.367188 78.132812 78.582031 75.304688 76.964844 73.429688 Z M 62.164062 56.25 " fill-opacity="1" fill-rule="nonzero"/></svg>